<?xml version="1.0"?>


<svg fill-opacity="1" xmlns:xlink="http://www.w3.org/1999/xlink"
     color-rendering="auto" color-interpolation="auto" text-rendering="auto"
     stroke="black" stroke-linecap="square" width="885" stroke-miterlimit="10"
     shape-rendering="auto" stroke-opacity="1" fill="black"
     stroke-dasharray="none" font-weight="normal" stroke-width="1"
     viewBox="0 0 885 633" height="633" xmlns="http://www.w3.org/2000/svg"
     font-family="'Dialog'" font-style="normal" stroke-linejoin="miter"
     font-size="12px" stroke-dashoffset="0" image-rendering="auto">
    <!--Generated by Archi with Batik SVG Generator-->
    <defs id="genericDefs"/>
    <g>
        <defs id="defs1">
            <clipPath clipPathUnits="userSpaceOnUse" id="clipPath1">
                <path d="M9 9 L876 9 L876 624 L9 624 L9 9 Z"/>
            </clipPath>
            <clipPath clipPathUnits="userSpaceOnUse" id="clipPath2">
                <path d="M13 11 L428 11 L428 28 L13 28 L13 11 Z"/>
            </clipPath>
            <clipPath clipPathUnits="userSpaceOnUse" id="clipPath3">
                <path d="M657 198 L779 198 L779 255 L657 255 L657 198 Z"/>
            </clipPath>
            <clipPath clipPathUnits="userSpaceOnUse" id="clipPath4">
                <path d="M690 202 L746 202 L746 219 L690 219 L690 202 Z"/>
            </clipPath>
            <clipPath clipPathUnits="userSpaceOnUse" id="clipPath5">
                <path d="M333 198 L576 198 L576 255 L333 255 L333 198 Z"/>
            </clipPath>
            <clipPath clipPathUnits="userSpaceOnUse" id="clipPath6">
                <path d="M388 202 L521 202 L521 219 L388 219 L388 202 Z"/>
            </clipPath>
            <clipPath clipPathUnits="userSpaceOnUse" id="clipPath7">
                <path d="M333 93 L576 93 L576 144 L333 144 L333 93 Z"/>
            </clipPath>
            <clipPath clipPathUnits="userSpaceOnUse" id="clipPath8">
                <path d="M394 97 L515 97 L515 114 L394 114 L394 97 Z"/>
            </clipPath>
            <clipPath clipPathUnits="userSpaceOnUse" id="clipPath9">
                <path d="M153 201 L276 201 L276 252 L153 252 L153 201 Z"/>
            </clipPath>
            <clipPath clipPathUnits="userSpaceOnUse" id="clipPath10">
                <path d="M192 205 L236 205 L236 222 L192 222 L192 205 Z"/>
            </clipPath>
            <clipPath clipPathUnits="userSpaceOnUse" id="clipPath11">
                <path d="M345 309 L564 309 L564 366 L345 366 L345 309 Z"/>
            </clipPath>
            <clipPath clipPathUnits="userSpaceOnUse" id="clipPath12">
                <path d="M381 313 L528 313 L528 330 L381 330 L381 313 Z"/>
            </clipPath>
            <clipPath clipPathUnits="userSpaceOnUse" id="clipPath13">
                <path d="M345 525 L564 525 L564 576 L345 576 L345 525 Z"/>
            </clipPath>
            <clipPath clipPathUnits="userSpaceOnUse" id="clipPath14">
                <path d="M394 529 L515 529 L515 546 L394 546 L394 529 Z"/>
            </clipPath>
            <clipPath clipPathUnits="userSpaceOnUse" id="clipPath15">
                <path d="M345 417 L564 417 L564 468 L345 468 L345 417 Z"/>
            </clipPath>
            <clipPath clipPathUnits="userSpaceOnUse" id="clipPath16">
                <path d="M369 421 L540 421 L540 438 L369 438 L369 421 Z"/>
            </clipPath>
            <clipPath clipPathUnits="userSpaceOnUse" id="clipPath17">
                <path d="M563 131 L671 131 L671 212 L563 212 L563 131 Z"/>
            </clipPath>
            <clipPath clipPathUnits="userSpaceOnUse" id="clipPath18">
                <path d="M649 191 L661 191 L661 202 L649 202 L649 191 Z"/>
            </clipPath>
            <clipPath clipPathUnits="userSpaceOnUse" id="clipPath19">
                <path d="M548 241 L671 241 L671 325 L548 325 L548 241 Z"/>
            </clipPath>
            <clipPath clipPathUnits="userSpaceOnUse" id="clipPath20">
                <path d="M648 251 L661 251 L661 262 L648 262 L648 251 Z"/>
            </clipPath>
            <clipPath clipPathUnits="userSpaceOnUse" id="clipPath21">
                <path d="M439 241 L470 241 L470 322 L439 322 L439 241 Z"/>
            </clipPath>
            <clipPath clipPathUnits="userSpaceOnUse" id="clipPath22">
                <path d="M449 251 L460 251 L460 263 L449 263 L449 251 Z"/>
            </clipPath>
            <clipPath clipPathUnits="userSpaceOnUse" id="clipPath23">
                <path d="M443 131 L466 131 L466 211 L443 211 L443 131 Z"/>
            </clipPath>
            <clipPath clipPathUnits="userSpaceOnUse" id="clipPath24">
                <path d="M262 131 L346 131 L346 215 L262 215 L262 131 Z"/>
            </clipPath>
            <clipPath clipPathUnits="userSpaceOnUse" id="clipPath25">
                <path d="M272 193 L284 193 L284 205 L272 205 L272 193 Z"/>
            </clipPath>
            <clipPath clipPathUnits="userSpaceOnUse" id="clipPath26">
                <path d="M263 239 L362 239 L362 326 L263 326 L263 239 Z"/>
            </clipPath>
            <clipPath clipPathUnits="userSpaceOnUse" id="clipPath27">
                <path d="M340 304 L352 304 L352 316 L340 316 L340 304 Z"/>
            </clipPath>
            <clipPath clipPathUnits="userSpaceOnUse" id="clipPath28">
                <path d="M439 352 L470 352 L470 430 L439 430 L439 352 Z"/>
            </clipPath>
            <clipPath clipPathUnits="userSpaceOnUse" id="clipPath29">
                <path d="M449 362 L460 362 L460 374 L449 374 L449 362 Z"/>
            </clipPath>
            <clipPath clipPathUnits="userSpaceOnUse" id="clipPath30">
                <path d="M436 454 L473 454 L473 538 L436 538 L436 454 Z"/>
            </clipPath>
            <clipPath clipPathUnits="userSpaceOnUse" id="clipPath31">
                <path d="M446 464 L463 464 L463 489 L446 489 L446 464 Z"/>
            </clipPath>
        </defs>
        <g fill="rgb(210,212,212)" text-rendering="optimizeLegibility"
           font-family="'Lucida Grande'" stroke-linejoin="round"
           stroke="rgb(210,212,212)" stroke-width="0" stroke-miterlimit="0">
            <path d="M10 10 L442 10 L442 28 L10 28 L10 10" fill-rule="evenodd"
                  clip-path="url(#clipPath1)" stroke="none"/>
            <path fill="rgb(234,236,236)" d="M10 28 L874 28 L874 622 L10 622"
                  clip-path="url(#clipPath1)" fill-rule="evenodd" stroke="none"/>
        </g>
        <g fill="rgb(163,165,165)" text-rendering="optimizeLegibility"
           font-family="'Lucida Grande'" stroke-linecap="butt"
           stroke="rgb(163,165,165)">
            <path fill="none" d="M10 28 L10 10 L442 10 L442 28"
                  fill-rule="evenodd" clip-path="url(#clipPath1)"/>
            <rect fill="none" x="10" width="864" height="594" y="28"
                  clip-path="url(#clipPath1)"/>
            <path fill="black"
                  d="M14.5566 24 L14.5566 23.0156 L19.2148 16.248 L14.8438 16.248 L14.8438 15.3281 L20.6914 15.3281 L20.6914 16.248 L16.0332 23.0156 L20.6914 23.0156 L20.6914 24 ZM26.3867 24 L26.3867 22.8047 Q25.4668 24.1465 24.1543 24.1465 Q23.3223 24.1465 22.8301 23.6221 Q22.3379 23.0977 22.3379 22.207 L22.3379 17.6367 L23.4922 17.6367 L23.4922 21.832 Q23.4922 22.5469 23.7002 22.8486 Q23.9082 23.1504 24.3945 23.1504 Q25.4492 23.1504 26.3867 21.7617 L26.3867 17.6367 L27.541 17.6367 L27.541 24 ZM31.543 24.1465 Q30.752 24.1465 29.6211 23.7773 L29.6211 22.7168 Q30.752 23.2793 31.5898 23.2793 Q32.0879 23.2793 32.416 23.0098 Q32.7441 22.7402 32.7441 22.3359 Q32.7441 21.7441 31.8242 21.3574 L31.1504 21.0703 Q29.6562 20.4492 29.6562 19.2832 Q29.6562 18.4512 30.2451 17.9736 Q30.834 17.4961 31.8594 17.4961 Q32.3926 17.4961 33.1777 17.6426 L33.418 17.6895 L33.418 18.6504 Q32.4512 18.3633 31.8828 18.3633 Q30.7695 18.3633 30.7695 19.1719 Q30.7695 19.6934 31.6133 20.0508 L32.1699 20.2852 Q33.1133 20.6836 33.5059 21.126 Q33.8984 21.5684 33.8984 22.2305 Q33.8984 23.0684 33.2363 23.6074 Q32.5742 24.1465 31.543 24.1465 ZM37.8828 24.1465 Q37.0039 24.1465 36.5117 23.6426 Q36.0195 23.1387 36.0195 22.2422 L36.0195 18.5039 L35.2227 18.5039 L35.2227 17.6367 L36.0195 17.6367 L36.0195 16.4824 L37.1738 16.3711 L37.1738 17.6367 L38.8379 17.6367 L38.8379 18.5039 L37.1738 18.5039 L37.1738 22.0312 Q37.1738 23.2793 38.252 23.2793 Q38.4805 23.2793 38.8086 23.2031 L38.8086 24 Q38.2754 24.1465 37.8828 24.1465 ZM43.7422 23.1914 Q42.7051 24.1465 41.7441 24.1465 Q40.9531 24.1465 40.4316 23.6514 Q39.9102 23.1562 39.9102 22.4004 Q39.9102 21.3574 40.7861 20.7979 Q41.6621 20.2383 43.2969 20.2383 L43.5723 20.2383 L43.5723 19.4707 Q43.5723 18.3633 42.4355 18.3633 Q41.5215 18.3633 40.4609 18.9258 L40.4609 17.9707 Q41.627 17.4961 42.6465 17.4961 Q43.7129 17.4961 44.2197 17.9766 Q44.7266 18.457 44.7266 19.4707 L44.7266 22.3535 Q44.7266 23.3438 45.3359 23.3438 Q45.4121 23.3438 45.5586 23.3203 L45.6406 23.959 Q45.248 24.1465 44.7734 24.1465 Q43.9648 24.1465 43.7422 23.1914 ZM43.5723 22.5645 L43.5723 20.918 L43.1855 20.9062 Q42.2363 20.9062 41.6504 21.2666 Q41.0645 21.627 41.0645 22.2129 Q41.0645 22.6289 41.3574 22.916 Q41.6504 23.2031 42.0723 23.2031 Q42.793 23.2031 43.5723 22.5645 ZM47.0879 24 L47.0879 17.6367 L48.2422 17.6367 L48.2422 18.832 Q49.1562 17.4961 50.4805 17.4961 Q51.3066 17.4961 51.7988 18.0205 Q52.291 18.5449 52.291 19.4297 L52.291 24 L51.1367 24 L51.1367 19.8047 Q51.1367 19.0957 50.9287 18.7939 Q50.7207 18.4922 50.2402 18.4922 Q49.1797 18.4922 48.2422 19.8809 L48.2422 24 ZM58.6191 24 L58.6191 22.8047 Q57.916 24.1465 56.498 24.1465 Q55.3496 24.1465 54.6904 23.3086 Q54.0312 22.4707 54.0312 21.0176 Q54.0312 19.4297 54.7783 18.4629 Q55.5254 17.4961 56.7441 17.4961 Q57.875 17.4961 58.6191 18.3633 L58.6191 14.748 L59.7793 14.748 L59.7793 24 ZM58.6191 19.1543 Q57.7227 18.3633 56.9199 18.3633 Q55.2617 18.3633 55.2617 20.9004 Q55.2617 23.1328 56.7383 23.1328 Q57.6992 23.1328 58.6191 22.084 ZM63.7754 24.1465 Q62.9844 24.1465 61.8535 23.7773 L61.8535 22.7168 Q62.9844 23.2793 63.8223 23.2793 Q64.3203 23.2793 64.6484 23.0098 Q64.9766 22.7402 64.9766 22.3359 Q64.9766 21.7441 64.0566 21.3574 L63.3828 21.0703 Q61.8887 20.4492 61.8887 19.2832 Q61.8887 18.4512 62.4775 17.9736 Q63.0664 17.4961 64.0918 17.4961 Q64.625 17.4961 65.4102 17.6426 L65.6504 17.6895 L65.6504 18.6504 Q64.6836 18.3633 64.1152 18.3633 Q63.002 18.3633 63.002 19.1719 Q63.002 19.6934 63.8457 20.0508 L64.4023 20.2852 Q65.3457 20.6836 65.7383 21.126 Q66.1309 21.5684 66.1309 22.2305 Q66.1309 23.0684 65.4688 23.6074 Q64.8066 24.1465 63.7754 24.1465 ZM72.1836 24 L72.1836 22.8047 Q71.2637 24.1465 69.9512 24.1465 Q69.1191 24.1465 68.627 23.6221 Q68.1348 23.0977 68.1348 22.207 L68.1348 17.6367 L69.2891 17.6367 L69.2891 21.832 Q69.2891 22.5469 69.4971 22.8486 Q69.7051 23.1504 70.1914 23.1504 Q71.2461 23.1504 72.1836 21.7617 L72.1836 17.6367 L73.3379 17.6367 L73.3379 24 ZM69.0723 16.4824 L69.0723 15.4688 L70.0859 15.4688 L70.0859 16.4824 ZM71.3867 16.4824 L71.3867 15.4688 L72.4004 15.4688 L72.4004 16.4824 ZM75.6523 24.0703 L75.6523 14.748 L76.8066 14.748 L76.8066 18.832 Q77.5156 17.4961 78.9336 17.4961 Q80.082 17.4961 80.7412 18.334 Q81.4004 19.1719 81.4004 20.625 Q81.4004 22.207 80.6533 23.1768 Q79.9062 24.1465 78.6875 24.1465 Q77.5566 24.1465 76.8066 23.2793 L76.666 24.0703 ZM76.8066 22.4824 Q77.6973 23.2793 78.5059 23.2793 Q80.1699 23.2793 80.1699 20.7422 Q80.1699 18.5039 78.6934 18.5039 Q77.7266 18.5039 76.8066 19.5527 ZM87.8691 23.7949 Q86.709 24.1465 85.8828 24.1465 Q84.4766 24.1465 83.5889 23.2119 Q82.7012 22.2773 82.7012 20.7891 Q82.7012 19.3418 83.4834 18.416 Q84.2656 17.4902 85.4844 17.4902 Q86.6387 17.4902 87.2686 18.3105 Q87.8984 19.1309 87.8984 20.6426 L87.8926 21 L83.8789 21 Q84.1309 23.2676 86.0996 23.2676 Q86.8203 23.2676 87.8691 22.8809 ZM83.9316 20.1328 L86.7383 20.1328 Q86.7383 18.3574 85.4141 18.3574 Q84.084 18.3574 83.9316 20.1328 ZM89.8906 24 L89.8906 17.6367 L91.0449 17.6367 L91.0449 18.832 Q91.7305 17.4961 93.0371 17.4961 Q93.2129 17.4961 93.4062 17.5254 L93.4062 18.6035 Q93.1074 18.5039 92.8789 18.5039 Q91.7832 18.5039 91.0449 19.8047 L91.0449 24 ZM94.8242 26.1152 L94.959 25.1133 Q95.9609 25.5879 96.9336 25.5879 Q98.8848 25.5879 98.8848 23.5195 L98.8848 22.5176 Q98.2461 23.8535 96.7871 23.8535 Q95.6445 23.8535 94.9707 23.0215 Q94.2969 22.1895 94.2969 20.7773 Q94.2969 19.3242 95.0645 18.4102 Q95.832 17.4961 97.0508 17.4961 Q98.1172 17.4961 98.8848 18.3633 L98.8848 17.6367 L100.0449 17.6367 L100.0449 22.2656 Q100.0449 23.7598 99.8896 24.4775 Q99.7344 25.1953 99.3066 25.6523 Q98.5508 26.4551 96.957 26.4551 Q95.8438 26.4551 94.8242 26.1152 ZM98.8848 21.7969 L98.8848 19.1543 Q98.123 18.3633 97.2266 18.3633 Q96.4297 18.3633 95.9785 19.002 Q95.5273 19.6406 95.5273 20.7539 Q95.5273 22.8457 96.998 22.8457 Q98 22.8457 98.8848 21.7969 ZM105.5645 23.1914 Q104.5273 24.1465 103.5664 24.1465 Q102.7754 24.1465 102.2539 23.6514 Q101.7324 23.1562 101.7324 22.4004 Q101.7324 21.3574 102.6084 20.7979 Q103.4844 20.2383 105.1191 20.2383 L105.3945 20.2383 L105.3945 19.4707 Q105.3945 18.3633 104.2578 18.3633 Q103.3438 18.3633 102.2832 18.9258 L102.2832 17.9707 Q103.4492 17.4961 104.4688 17.4961 Q105.5352 17.4961 106.042 17.9766 Q106.5488 18.457 106.5488 19.4707 L106.5488 22.3535 Q106.5488 23.3438 107.1582 23.3438 Q107.2344 23.3438 107.3809 23.3203 L107.4629 23.959 Q107.0703 24.1465 106.5957 24.1465 Q105.7871 24.1465 105.5645 23.1914 ZM105.3945 22.5645 L105.3945 20.918 L105.0078 20.9062 Q104.0586 20.9062 103.4727 21.2666 Q102.8867 21.627 102.8867 22.2129 Q102.8867 22.6289 103.1797 22.916 Q103.4727 23.2031 103.8945 23.2031 Q104.6152 23.2031 105.3945 22.5645 ZM102.8164 16.4824 L102.8164 15.4688 L103.8301 15.4688 L103.8301 16.4824 ZM105.1309 16.4824 L105.1309 15.4688 L106.1445 15.4688 L106.1445 16.4824 ZM108.9102 24 L108.9102 17.6367 L110.0645 17.6367 L110.0645 18.832 Q110.9785 17.4961 112.3027 17.4961 Q113.1289 17.4961 113.6211 18.0205 Q114.1133 18.5449 114.1133 19.4297 L114.1133 24 L112.959 24 L112.959 19.8047 Q112.959 19.0957 112.751 18.7939 Q112.543 18.4922 112.0625 18.4922 Q111.002 18.4922 110.0645 19.8809 L110.0645 24 ZM116.3809 26.1152 L116.5156 25.1133 Q117.5176 25.5879 118.4902 25.5879 Q120.4414 25.5879 120.4414 23.5195 L120.4414 22.5176 Q119.8027 23.8535 118.3438 23.8535 Q117.2012 23.8535 116.5273 23.0215 Q115.8535 22.1895 115.8535 20.7773 Q115.8535 19.3242 116.6211 18.4102 Q117.3887 17.4961 118.6074 17.4961 Q119.6738 17.4961 120.4414 18.3633 L120.4414 17.6367 L121.6016 17.6367 L121.6016 22.2656 Q121.6016 23.7598 121.4463 24.4775 Q121.291 25.1953 120.8633 25.6523 Q120.1074 26.4551 118.5137 26.4551 Q117.4004 26.4551 116.3809 26.1152 ZM120.4414 21.7969 L120.4414 19.1543 Q119.6797 18.3633 118.7832 18.3633 Q117.9863 18.3633 117.5352 19.002 Q117.084 19.6406 117.084 20.7539 Q117.084 22.8457 118.5547 22.8457 Q119.5566 22.8457 120.4414 21.7969 ZM128.5039 23.7949 Q127.3438 24.1465 126.5176 24.1465 Q125.1113 24.1465 124.2236 23.2119 Q123.3359 22.2773 123.3359 20.7891 Q123.3359 19.3418 124.1182 18.416 Q124.9004 17.4902 126.1191 17.4902 Q127.2734 17.4902 127.9033 18.3105 Q128.5332 19.1309 128.5332 20.6426 L128.5273 21 L124.5137 21 Q124.7656 23.2676 126.7344 23.2676 Q127.4551 23.2676 128.5039 22.8809 ZM124.5664 20.1328 L127.373 20.1328 Q127.373 18.3574 126.0488 18.3574 Q124.7188 18.3574 124.5664 20.1328 ZM138.4062 24 L138.4062 22.8047 Q137.7031 24.1465 136.2852 24.1465 Q135.1367 24.1465 134.4775 23.3086 Q133.8184 22.4707 133.8184 21.0176 Q133.8184 19.4297 134.5654 18.4629 Q135.3125 17.4961 136.5312 17.4961 Q137.6621 17.4961 138.4062 18.3633 L138.4062 14.748 L139.5664 14.748 L139.5664 24 ZM138.4062 19.1543 Q137.5098 18.3633 136.707 18.3633 Q135.0488 18.3633 135.0488 20.9004 Q135.0488 23.1328 136.5254 23.1328 Q137.4863 23.1328 138.4062 22.084 ZM146.5391 23.7949 Q145.3789 24.1465 144.5527 24.1465 Q143.1465 24.1465 142.2588 23.2119 Q141.3711 22.2773 141.3711 20.7891 Q141.3711 19.3418 142.1533 18.416 Q142.9355 17.4902 144.1543 17.4902 Q145.3086 17.4902 145.9385 18.3105 Q146.5684 19.1309 146.5684 20.6426 L146.5625 21 L142.5488 21 Q142.8008 23.2676 144.7695 23.2676 Q145.4902 23.2676 146.5391 22.8809 ZM142.6016 20.1328 L145.4082 20.1328 Q145.4082 18.3574 144.084 18.3574 Q142.7539 18.3574 142.6016 20.1328 ZM150.248 24.1465 Q149.457 24.1465 148.3262 23.7773 L148.3262 22.7168 Q149.457 23.2793 150.2949 23.2793 Q150.793 23.2793 151.1211 23.0098 Q151.4492 22.7402 151.4492 22.3359 Q151.4492 21.7441 150.5293 21.3574 L149.8555 21.0703 Q148.3613 20.4492 148.3613 19.2832 Q148.3613 18.4512 148.9502 17.9736 Q149.5391 17.4961 150.5645 17.4961 Q151.0977 17.4961 151.8828 17.6426 L152.123 17.6895 L152.123 18.6504 Q151.1562 18.3633 150.5879 18.3633 Q149.4746 18.3633 149.4746 19.1719 Q149.4746 19.6934 150.3184 20.0508 L150.875 20.2852 Q151.8184 20.6836 152.2109 21.126 Q152.6035 21.5684 152.6035 22.2305 Q152.6035 23.0684 151.9414 23.6074 Q151.2793 24.1465 150.248 24.1465 ZM164.9551 23.7656 Q163.3789 24.2168 162.207 24.2168 Q160.1387 24.2168 159.0342 23.0391 Q157.9297 21.8613 157.9297 19.6641 Q157.9297 17.5078 159.0488 16.3096 Q160.168 15.1113 162.1895 15.1113 Q163.5137 15.1113 164.9434 15.5039 L164.9434 16.6406 Q163.1504 16.0312 162.1953 16.0312 Q160.7891 16.0312 160.0127 16.9863 Q159.2363 17.9414 159.2363 19.6758 Q159.2363 21.3926 160.0684 22.3447 Q160.9004 23.2969 162.4004 23.2969 Q163.0156 23.2969 163.7305 23.0801 L163.7305 20.2559 L164.9551 20.2559 ZM167.1465 24 L167.1465 17.6367 L168.3008 17.6367 L168.3008 18.832 Q168.9863 17.4961 170.293 17.4961 Q170.4688 17.4961 170.6621 17.5254 L170.6621 18.6035 Q170.3633 18.5039 170.1348 18.5039 Q169.0391 18.5039 168.3008 19.8047 L168.3008 24 ZM176.0352 24 L176.0352 22.8047 Q175.1152 24.1465 173.8027 24.1465 Q172.9707 24.1465 172.4785 23.6221 Q171.9863 23.0977 171.9863 22.207 L171.9863 17.6367 L173.1406 17.6367 L173.1406 21.832 Q173.1406 22.5469 173.3486 22.8486 Q173.5566 23.1504 174.043 23.1504 Q175.0977 23.1504 176.0352 21.7617 L176.0352 17.6367 L177.1895 17.6367 L177.1895 24 ZM172.9238 16.4824 L172.9238 15.4688 L173.9375 15.4688 L173.9375 16.4824 ZM175.2383 16.4824 L175.2383 15.4688 L176.252 15.4688 L176.252 16.4824 ZM179.5039 24 L179.5039 17.6367 L180.6582 17.6367 L180.6582 18.832 Q181.5723 17.4961 182.8965 17.4961 Q183.7227 17.4961 184.2148 18.0205 Q184.707 18.5449 184.707 19.4297 L184.707 24 L183.5527 24 L183.5527 19.8047 Q183.5527 19.0957 183.3447 18.7939 Q183.1367 18.4922 182.6562 18.4922 Q181.5957 18.4922 180.6582 19.8809 L180.6582 24 ZM191.0352 24 L191.0352 22.8047 Q190.332 24.1465 188.9141 24.1465 Q187.7656 24.1465 187.1064 23.3086 Q186.4473 22.4707 186.4473 21.0176 Q186.4473 19.4297 187.1943 18.4629 Q187.9414 17.4961 189.1602 17.4961 Q190.291 17.4961 191.0352 18.3633 L191.0352 14.748 L192.1953 14.748 L192.1953 24 ZM191.0352 19.1543 Q190.1387 18.3633 189.3359 18.3633 Q187.6777 18.3633 187.6777 20.9004 Q187.6777 23.1328 189.1543 23.1328 Q190.1152 23.1328 191.0352 22.084 ZM198.4824 24 L198.4824 22.8047 Q197.5625 24.1465 196.25 24.1465 Q195.418 24.1465 194.9258 23.6221 Q194.4336 23.0977 194.4336 22.207 L194.4336 17.6367 L195.5879 17.6367 L195.5879 21.832 Q195.5879 22.5469 195.7959 22.8486 Q196.0039 23.1504 196.4902 23.1504 Q197.5449 23.1504 198.4824 21.7617 L198.4824 17.6367 L199.6367 17.6367 L199.6367 24 ZM201.9512 24 L201.9512 17.6367 L203.1055 17.6367 L203.1055 18.832 Q204.0195 17.4961 205.3438 17.4961 Q206.1699 17.4961 206.6621 18.0205 Q207.1543 18.5449 207.1543 19.4297 L207.1543 24 L206 24 L206 19.8047 Q206 19.0957 205.792 18.7939 Q205.584 18.4922 205.1035 18.4922 Q204.043 18.4922 203.1055 19.8809 L203.1055 24 ZM209.4219 26.1152 L209.5566 25.1133 Q210.5586 25.5879 211.5312 25.5879 Q213.4824 25.5879 213.4824 23.5195 L213.4824 22.5176 Q212.8438 23.8535 211.3848 23.8535 Q210.2422 23.8535 209.5684 23.0215 Q208.8945 22.1895 208.8945 20.7773 Q208.8945 19.3242 209.6621 18.4102 Q210.4297 17.4961 211.6484 17.4961 Q212.7148 17.4961 213.4824 18.3633 L213.4824 17.6367 L214.6426 17.6367 L214.6426 22.2656 Q214.6426 23.7598 214.4873 24.4775 Q214.332 25.1953 213.9043 25.6523 Q213.1484 26.4551 211.5547 26.4551 Q210.4414 26.4551 209.4219 26.1152 ZM213.4824 21.7969 L213.4824 19.1543 Q212.7207 18.3633 211.8242 18.3633 Q211.0273 18.3633 210.5762 19.002 Q210.125 19.6406 210.125 20.7539 Q210.125 22.8457 211.5957 22.8457 Q212.5977 22.8457 213.4824 21.7969 ZM218.5684 24.1465 Q217.7773 24.1465 216.6465 23.7773 L216.6465 22.7168 Q217.7773 23.2793 218.6152 23.2793 Q219.1133 23.2793 219.4414 23.0098 Q219.7695 22.7402 219.7695 22.3359 Q219.7695 21.7441 218.8496 21.3574 L218.1758 21.0703 Q216.6816 20.4492 216.6816 19.2832 Q216.6816 18.4512 217.2705 17.9736 Q217.8594 17.4961 218.8848 17.4961 Q219.418 17.4961 220.2031 17.6426 L220.4434 17.6895 L220.4434 18.6504 Q219.4766 18.3633 218.9082 18.3633 Q217.7949 18.3633 217.7949 19.1719 Q217.7949 19.6934 218.6387 20.0508 L219.1953 20.2852 Q220.1387 20.6836 220.5312 21.126 Q220.9238 21.5684 220.9238 22.2305 Q220.9238 23.0684 220.2617 23.6074 Q219.5996 24.1465 218.5684 24.1465 ZM224.3164 24 L221.9492 17.6367 L223.1035 17.6367 L224.9551 22.5879 L226.9062 17.6367 L227.9844 17.6367 L225.4707 24 ZM231.6992 24.1465 Q230.334 24.1465 229.5195 23.2412 Q228.7051 22.3359 228.7051 20.8184 Q228.7051 19.2832 229.5225 18.3896 Q230.3398 17.4961 231.7402 17.4961 Q233.1406 17.4961 233.958 18.3896 Q234.7754 19.2832 234.7754 20.8066 Q234.7754 22.3652 233.9551 23.2559 Q233.1348 24.1465 231.6992 24.1465 ZM231.7168 23.2793 Q233.5508 23.2793 233.5508 20.8066 Q233.5508 18.3633 231.7402 18.3633 Q229.9355 18.3633 229.9355 20.8184 Q229.9355 23.2793 231.7168 23.2793 ZM236.5801 24 L236.5801 17.6367 L237.7344 17.6367 L237.7344 18.832 Q238.4199 17.4961 239.7266 17.4961 Q239.9023 17.4961 240.0957 17.5254 L240.0957 18.6035 Q239.7969 18.5039 239.5684 18.5039 Q238.4727 18.5039 237.7344 19.8047 L237.7344 24 ZM241.4902 24 L241.4902 14.748 L242.6445 14.748 L242.6445 18.832 Q243.5586 17.4961 244.8828 17.4961 Q245.709 17.4961 246.2012 18.0205 Q246.6934 18.5449 246.6934 19.4297 L246.6934 24 L245.5391 24 L245.5391 19.8047 Q245.5391 19.0957 245.3311 18.7939 Q245.123 18.4922 244.6426 18.4922 Q243.582 18.4922 242.6445 19.8809 L242.6445 24 ZM252.2188 23.1914 Q251.1816 24.1465 250.2207 24.1465 Q249.4297 24.1465 248.9082 23.6514 Q248.3867 23.1562 248.3867 22.4004 Q248.3867 21.3574 249.2627 20.7979 Q250.1387 20.2383 251.7734 20.2383 L252.0488 20.2383 L252.0488 19.4707 Q252.0488 18.3633 250.9121 18.3633 Q249.998 18.3633 248.9375 18.9258 L248.9375 17.9707 Q250.1035 17.4961 251.123 17.4961 Q252.1895 17.4961 252.6963 17.9766 Q253.2031 18.457 253.2031 19.4707 L253.2031 22.3535 Q253.2031 23.3438 253.8125 23.3438 Q253.8887 23.3438 254.0352 23.3203 L254.1172 23.959 Q253.7246 24.1465 253.25 24.1465 Q252.4414 24.1465 252.2188 23.1914 ZM252.0488 22.5645 L252.0488 20.918 L251.6621 20.9062 Q250.7129 20.9062 250.127 21.2666 Q249.541 21.627 249.541 22.2129 Q249.541 22.6289 249.834 22.916 Q250.127 23.2031 250.5488 23.2031 Q251.2695 23.2031 252.0488 22.5645 ZM255.5645 24.0703 L255.5645 14.748 L256.7188 14.748 L256.7188 18.832 Q257.4277 17.4961 258.8457 17.4961 Q259.9941 17.4961 260.6533 18.334 Q261.3125 19.1719 261.3125 20.625 Q261.3125 22.207 260.5654 23.1768 Q259.8184 24.1465 258.5996 24.1465 Q257.4688 24.1465 256.7188 23.2793 L256.5781 24.0703 ZM256.7188 22.4824 Q257.6094 23.2793 258.418 23.2793 Q260.082 23.2793 260.082 20.7422 Q260.082 18.5039 258.6055 18.5039 Q257.6387 18.5039 256.7188 19.5527 ZM267.7812 23.7949 Q266.6211 24.1465 265.7949 24.1465 Q264.3887 24.1465 263.501 23.2119 Q262.6133 22.2773 262.6133 20.7891 Q262.6133 19.3418 263.3955 18.416 Q264.1777 17.4902 265.3965 17.4902 Q266.5508 17.4902 267.1807 18.3105 Q267.8105 19.1309 267.8105 20.6426 L267.8047 21 L263.791 21 Q264.043 23.2676 266.0117 23.2676 Q266.7324 23.2676 267.7812 22.8809 ZM263.8438 20.1328 L266.6504 20.1328 Q266.6504 18.3574 265.3262 18.3574 Q263.9961 18.3574 263.8438 20.1328 ZM269.8027 24 L269.8027 17.6367 L270.957 17.6367 L270.957 18.832 Q271.8711 17.4961 273.1953 17.4961 Q274.0215 17.4961 274.5137 18.0205 Q275.0059 18.5449 275.0059 19.4297 L275.0059 24 L273.8516 24 L273.8516 19.8047 Q273.8516 19.0957 273.6436 18.7939 Q273.4355 18.4922 272.9551 18.4922 Q271.8945 18.4922 270.957 19.8809 L270.957 24 ZM278.9375 24.1465 Q278.1465 24.1465 277.0156 23.7773 L277.0156 22.7168 Q278.1465 23.2793 278.9844 23.2793 Q279.4824 23.2793 279.8105 23.0098 Q280.1387 22.7402 280.1387 22.3359 Q280.1387 21.7441 279.2188 21.3574 L278.5449 21.0703 Q277.0508 20.4492 277.0508 19.2832 Q277.0508 18.4512 277.6396 17.9736 Q278.2285 17.4961 279.2539 17.4961 Q279.7871 17.4961 280.5723 17.6426 L280.8125 17.6895 L280.8125 18.6504 Q279.8457 18.3633 279.2773 18.3633 Q278.1641 18.3633 278.1641 19.1719 Q278.1641 19.6934 279.0078 20.0508 L279.5645 20.2852 Q280.5078 20.6836 280.9004 21.126 Q281.293 21.5684 281.293 22.2305 Q281.293 23.0684 280.6309 23.6074 Q279.9688 24.1465 278.9375 24.1465 ZM287.1641 24 L287.1641 17.6367 L288.3184 17.6367 L288.3184 24 ZM287.1641 16.4824 L287.1641 15.3281 L288.3184 15.3281 L288.3184 16.4824 ZM290.6328 24 L290.6328 17.6367 L291.7871 17.6367 L291.7871 18.832 Q292.7012 17.4961 294.0254 17.4961 Q294.8516 17.4961 295.3438 18.0205 Q295.8359 18.5449 295.8359 19.4297 L295.8359 24 L294.6816 24 L294.6816 19.8047 Q294.6816 19.0957 294.4736 18.7939 Q294.2656 18.4922 293.7852 18.4922 Q292.7246 18.4922 291.7871 19.8809 L291.7871 24 ZM301.8418 24 L301.8418 15.3281 L304.2031 15.3281 Q305.7734 15.3281 306.459 15.8584 Q307.1445 16.3887 307.1445 17.6016 Q307.1445 18.9844 306.207 19.7695 Q305.2695 20.5547 303.6055 20.5547 L303.0605 20.5547 L303.0605 24 ZM303.0605 19.623 L303.5586 19.623 Q304.6543 19.623 305.252 19.1191 Q305.8496 18.6152 305.8496 17.6953 Q305.8496 16.916 305.3809 16.582 Q304.9121 16.248 303.8164 16.248 L303.0605 16.248 ZM308.5098 24 L308.5098 14.748 L309.6641 14.748 L309.6641 18.832 Q310.5781 17.4961 311.9023 17.4961 Q312.7285 17.4961 313.2207 18.0205 Q313.7129 18.5449 313.7129 19.4297 L313.7129 24 L312.5586 24 L312.5586 19.8047 Q312.5586 19.0957 312.3506 18.7939 Q312.1426 18.4922 311.6621 18.4922 Q310.6016 18.4922 309.6641 19.8809 L309.6641 24 ZM319.2383 23.1914 Q318.2012 24.1465 317.2402 24.1465 Q316.4492 24.1465 315.9277 23.6514 Q315.4062 23.1562 315.4062 22.4004 Q315.4062 21.3574 316.2822 20.7979 Q317.1582 20.2383 318.793 20.2383 L319.0684 20.2383 L319.0684 19.4707 Q319.0684 18.3633 317.9316 18.3633 Q317.0176 18.3633 315.957 18.9258 L315.957 17.9707 Q317.123 17.4961 318.1426 17.4961 Q319.209 17.4961 319.7158 17.9766 Q320.2227 18.457 320.2227 19.4707 L320.2227 22.3535 Q320.2227 23.3438 320.832 23.3438 Q320.9082 23.3438 321.0547 23.3203 L321.1367 23.959 Q320.7441 24.1465 320.2695 24.1465 Q319.4609 24.1465 319.2383 23.1914 ZM319.0684 22.5645 L319.0684 20.918 L318.6816 20.9062 Q317.7324 20.9062 317.1465 21.2666 Q316.5605 21.627 316.5605 22.2129 Q316.5605 22.6289 316.8535 22.916 Q317.1465 23.2031 317.5684 23.2031 Q318.2891 23.2031 319.0684 22.5645 ZM324.2715 24.1465 Q323.4805 24.1465 322.3496 23.7773 L322.3496 22.7168 Q323.4805 23.2793 324.3184 23.2793 Q324.8164 23.2793 325.1445 23.0098 Q325.4727 22.7402 325.4727 22.3359 Q325.4727 21.7441 324.5527 21.3574 L323.8789 21.0703 Q322.3848 20.4492 322.3848 19.2832 Q322.3848 18.4512 322.9736 17.9736 Q323.5625 17.4961 324.5879 17.4961 Q325.1211 17.4961 325.9062 17.6426 L326.1465 17.6895 L326.1465 18.6504 Q325.1797 18.3633 324.6113 18.3633 Q323.498 18.3633 323.498 19.1719 Q323.498 19.6934 324.3418 20.0508 L324.8984 20.2852 Q325.8418 20.6836 326.2344 21.126 Q326.627 21.5684 326.627 22.2305 Q326.627 23.0684 325.9648 23.6074 Q325.3027 24.1465 324.2715 24.1465 ZM333.3652 23.7949 Q332.2051 24.1465 331.3789 24.1465 Q329.9727 24.1465 329.085 23.2119 Q328.1973 22.2773 328.1973 20.7891 Q328.1973 19.3418 328.9795 18.416 Q329.7617 17.4902 330.9805 17.4902 Q332.1348 17.4902 332.7646 18.3105 Q333.3945 19.1309 333.3945 20.6426 L333.3887 21 L329.375 21 Q329.627 23.2676 331.5957 23.2676 Q332.3164 23.2676 333.3652 22.8809 ZM329.4277 20.1328 L332.2344 20.1328 Q332.2344 18.3574 330.9102 18.3574 Q329.5801 18.3574 329.4277 20.1328 ZM339.834 24 L339.834 23.1328 L341.5684 23.1328 L341.5684 16.2891 L339.834 16.7227 L339.834 15.832 L342.7285 15.1113 L342.7285 23.1328 L344.4629 23.1328 L344.4629 24 ZM346.9355 24 L346.9355 22.8457 L348.0898 22.8457 L348.0898 24 ZM346.9355 18.7969 L346.9355 17.6367 L348.0898 17.6367 L348.0898 18.7969 ZM357.8223 24.2168 Q356.0176 24.2168 354.9189 22.9658 Q353.8203 21.7148 353.8203 19.6582 Q353.8203 17.5898 354.9248 16.3506 Q356.0293 15.1113 357.875 15.1113 Q359.7148 15.1113 360.8223 16.3477 Q361.9297 17.584 361.9297 19.6465 Q361.9297 21.75 360.8223 22.9834 Q359.7148 24.2168 357.8223 24.2168 ZM357.8398 23.2969 Q359.1699 23.2969 359.8965 22.3389 Q360.623 21.3809 360.623 19.6348 Q360.623 17.9414 359.8936 16.9863 Q359.1641 16.0312 357.875 16.0312 Q356.5801 16.0312 355.8535 16.9893 Q355.127 17.9473 355.127 19.6523 Q355.127 21.3516 355.8477 22.3242 Q356.5684 23.2969 357.8398 23.2969 ZM363.6875 24 L363.6875 17.6367 L364.8418 17.6367 L364.8418 18.832 Q365.5273 17.4961 366.834 17.4961 Q367.0098 17.4961 367.2031 17.5254 L367.2031 18.6035 Q366.9043 18.5039 366.6758 18.5039 Q365.5801 18.5039 364.8418 19.8047 L364.8418 24 ZM368.5977 24 L368.5977 17.6367 L369.752 17.6367 L369.752 24 ZM368.5977 16.4824 L368.5977 15.3281 L369.752 15.3281 L369.752 16.4824 ZM376.7305 23.7949 Q375.5703 24.1465 374.7441 24.1465 Q373.3379 24.1465 372.4502 23.2119 Q371.5625 22.2773 371.5625 20.7891 Q371.5625 19.3418 372.3447 18.416 Q373.127 17.4902 374.3457 17.4902 Q375.5 17.4902 376.1299 18.3105 Q376.7598 19.1309 376.7598 20.6426 L376.7539 21 L372.7402 21 Q372.9922 23.2676 374.9609 23.2676 Q375.6816 23.2676 376.7305 22.8809 ZM372.793 20.1328 L375.5996 20.1328 Q375.5996 18.3574 374.2754 18.3574 Q372.9453 18.3574 372.793 20.1328 ZM378.752 24 L378.752 17.6367 L379.9062 17.6367 L379.9062 18.832 Q380.8203 17.4961 382.1445 17.4961 Q382.9707 17.4961 383.4629 18.0205 Q383.9551 18.5449 383.9551 19.4297 L383.9551 24 L382.8008 24 L382.8008 19.8047 Q382.8008 19.0957 382.5928 18.7939 Q382.3848 18.4922 381.9043 18.4922 Q380.8438 18.4922 379.9062 19.8809 L379.9062 24 ZM388.1094 24.1465 Q387.2305 24.1465 386.7383 23.6426 Q386.2461 23.1387 386.2461 22.2422 L386.2461 18.5039 L385.4492 18.5039 L385.4492 17.6367 L386.2461 17.6367 L386.2461 16.4824 L387.4004 16.3711 L387.4004 17.6367 L389.0645 17.6367 L389.0645 18.5039 L387.4004 18.5039 L387.4004 22.0312 Q387.4004 23.2793 388.4785 23.2793 Q388.707 23.2793 389.0352 23.2031 L389.0352 24 Q388.502 24.1465 388.1094 24.1465 ZM390.6875 24 L390.6875 17.6367 L391.8418 17.6367 L391.8418 24 ZM390.6875 16.4824 L390.6875 15.3281 L391.8418 15.3281 L391.8418 16.4824 ZM398.8203 23.7949 Q397.6602 24.1465 396.834 24.1465 Q395.4277 24.1465 394.54 23.2119 Q393.6523 22.2773 393.6523 20.7891 Q393.6523 19.3418 394.4346 18.416 Q395.2168 17.4902 396.4355 17.4902 Q397.5898 17.4902 398.2197 18.3105 Q398.8496 19.1309 398.8496 20.6426 L398.8438 21 L394.8301 21 Q395.082 23.2676 397.0508 23.2676 Q397.7715 23.2676 398.8203 22.8809 ZM394.8828 20.1328 L397.6895 20.1328 Q397.6895 18.3574 396.3652 18.3574 Q395.0352 18.3574 394.8828 20.1328 ZM400.8418 24 L400.8418 17.6367 L401.9961 17.6367 L401.9961 18.832 Q402.6816 17.4961 403.9883 17.4961 Q404.1641 17.4961 404.3574 17.5254 L404.3574 18.6035 Q404.0586 18.5039 403.8301 18.5039 Q402.7344 18.5039 401.9961 19.8047 L401.9961 24 ZM409.7305 24 L409.7305 22.8047 Q408.8105 24.1465 407.498 24.1465 Q406.666 24.1465 406.1738 23.6221 Q405.6816 23.0977 405.6816 22.207 L405.6816 17.6367 L406.8359 17.6367 L406.8359 21.832 Q406.8359 22.5469 407.0439 22.8486 Q407.252 23.1504 407.7383 23.1504 Q408.793 23.1504 409.7305 21.7617 L409.7305 17.6367 L410.8848 17.6367 L410.8848 24 ZM413.1992 24 L413.1992 17.6367 L414.3535 17.6367 L414.3535 18.832 Q415.2676 17.4961 416.5918 17.4961 Q417.418 17.4961 417.9102 18.0205 Q418.4023 18.5449 418.4023 19.4297 L418.4023 24 L417.248 24 L417.248 19.8047 Q417.248 19.0957 417.04 18.7939 Q416.832 18.4922 416.3516 18.4922 Q415.291 18.4922 414.3535 19.8809 L414.3535 24 ZM420.6699 26.1152 L420.8047 25.1133 Q421.8066 25.5879 422.7793 25.5879 Q424.7305 25.5879 424.7305 23.5195 L424.7305 22.5176 Q424.0918 23.8535 422.6328 23.8535 Q421.4902 23.8535 420.8164 23.0215 Q420.1426 22.1895 420.1426 20.7773 Q420.1426 19.3242 420.9102 18.4102 Q421.6777 17.4961 422.8965 17.4961 Q423.9629 17.4961 424.7305 18.3633 L424.7305 17.6367 L425.8906 17.6367 L425.8906 22.2656 Q425.8906 23.7598 425.7354 24.4775 Q425.5801 25.1953 425.1523 25.6523 Q424.3965 26.4551 422.8027 26.4551 Q421.6895 26.4551 420.6699 26.1152 ZM424.7305 21.7969 L424.7305 19.1543 Q423.9688 18.3633 423.0723 18.3633 Q422.2754 18.3633 421.8242 19.002 Q421.373 19.6406 421.373 20.7539 Q421.373 22.8457 422.8438 22.8457 Q423.8457 22.8457 424.7305 21.7969 Z"
                  clip-path="url(#clipPath2)" stroke="none"/>
            <path fill="rgb(255,255,181)"
                  d="M658 199 L676 225 L658 253 L759 253 L759 253 C768.9411 253 777 240.9117 777 226 C777 211.0883 768.9411 199 759 199 L658 199 L676 225"
                  clip-path="url(#clipPath3)" fill-rule="evenodd" stroke="none"/>
            <path fill="none"
                  d="M658 199 L676 225 L658 253 L759 253 L759 253 C768.9411 253 777 240.9117 777 226 C777 211.0883 768.9411 199 759 199 L658 199 L676 225"
                  clip-path="url(#clipPath3)" fill-rule="evenodd"
                  stroke="rgb(178,178,126)"/>
            <path fill="black"
                  d="M694.6445 215.1465 Q693.2793 215.1465 692.4648 214.2412 Q691.6504 213.3359 691.6504 211.8184 Q691.6504 210.2832 692.4678 209.3896 Q693.2852 208.4961 694.6855 208.4961 Q696.0859 208.4961 696.9033 209.3896 Q697.7207 210.2832 697.7207 211.8066 Q697.7207 213.3652 696.9004 214.2559 Q696.0801 215.1465 694.6445 215.1465 ZM694.6621 214.2793 Q696.4961 214.2793 696.4961 211.8066 Q696.4961 209.3633 694.6855 209.3633 Q692.8809 209.3633 692.8809 211.8184 Q692.8809 214.2793 694.6621 214.2793 ZM699.5254 215 L699.5254 208.6367 L700.6797 208.6367 L700.6797 209.832 Q701.3652 208.4961 702.6719 208.4961 Q702.8477 208.4961 703.041 208.5254 L703.041 209.6035 Q702.7422 209.5039 702.5137 209.5039 Q701.418 209.5039 700.6797 210.8047 L700.6797 215 ZM704.4355 215 L704.4355 208.6367 L705.5898 208.6367 L705.5898 215 ZM704.4355 207.4824 L704.4355 206.3281 L705.5898 206.3281 L705.5898 207.4824 ZM712.5684 214.7949 Q711.4082 215.1465 710.582 215.1465 Q709.1758 215.1465 708.2881 214.2119 Q707.4004 213.2773 707.4004 211.7891 Q707.4004 210.3418 708.1826 209.416 Q708.9648 208.4902 710.1836 208.4902 Q711.3379 208.4902 711.9678 209.3105 Q712.5977 210.1309 712.5977 211.6426 L712.5918 212 L708.5781 212 Q708.8301 214.2676 710.7988 214.2676 Q711.5195 214.2676 712.5684 213.8809 ZM708.6309 211.1328 L711.4375 211.1328 Q711.4375 209.3574 710.1133 209.3574 Q708.7832 209.3574 708.6309 211.1328 ZM714.5898 215 L714.5898 208.6367 L715.7441 208.6367 L715.7441 209.832 Q716.6582 208.4961 717.9824 208.4961 Q718.8086 208.4961 719.3008 209.0205 Q719.793 209.5449 719.793 210.4297 L719.793 215 L718.6387 215 L718.6387 210.8047 Q718.6387 210.0957 718.4307 209.7939 Q718.2227 209.4922 717.7422 209.4922 Q716.6816 209.4922 715.7441 210.8809 L715.7441 215 ZM723.9473 215.1465 Q723.0684 215.1465 722.5762 214.6426 Q722.084 214.1387 722.084 213.2422 L722.084 209.5039 L721.2871 209.5039 L721.2871 208.6367 L722.084 208.6367 L722.084 207.4824 L723.2383 207.3711 L723.2383 208.6367 L724.9023 208.6367 L724.9023 209.5039 L723.2383 209.5039 L723.2383 213.0312 Q723.2383 214.2793 724.3164 214.2793 Q724.5449 214.2793 724.873 214.2031 L724.873 215 Q724.3398 215.1465 723.9473 215.1465 ZM726.5254 215 L726.5254 208.6367 L727.6797 208.6367 L727.6797 215 ZM726.5254 207.4824 L726.5254 206.3281 L727.6797 206.3281 L727.6797 207.4824 ZM734.6582 214.7949 Q733.498 215.1465 732.6719 215.1465 Q731.2656 215.1465 730.3779 214.2119 Q729.4902 213.2773 729.4902 211.7891 Q729.4902 210.3418 730.2725 209.416 Q731.0547 208.4902 732.2734 208.4902 Q733.4277 208.4902 734.0576 209.3105 Q734.6875 210.1309 734.6875 211.6426 L734.6816 212 L730.668 212 Q730.9199 214.2676 732.8887 214.2676 Q733.6094 214.2676 734.6582 213.8809 ZM730.7207 211.1328 L733.5273 211.1328 Q733.5273 209.3574 732.2031 209.3574 Q730.873 209.3574 730.7207 211.1328 ZM736.6797 215 L736.6797 208.6367 L737.834 208.6367 L737.834 209.832 Q738.5195 208.4961 739.8262 208.4961 Q740.002 208.4961 740.1953 208.5254 L740.1953 209.6035 Q739.8965 209.5039 739.668 209.5039 Q738.5723 209.5039 737.834 210.8047 L737.834 215 ZM743.5 215.1465 Q742.6211 215.1465 742.1289 214.6426 Q741.6367 214.1387 741.6367 213.2422 L741.6367 209.5039 L740.8398 209.5039 L740.8398 208.6367 L741.6367 208.6367 L741.6367 207.4824 L742.791 207.3711 L742.791 208.6367 L744.4551 208.6367 L744.4551 209.5039 L742.791 209.5039 L742.791 213.0312 Q742.791 214.2793 743.8691 214.2793 Q744.0977 214.2793 744.4258 214.2031 L744.4258 215 Q743.8926 215.1465 743.5 215.1465 Z"
                  clip-path="url(#clipPath4)" stroke="none"/>
            <rect x="334" y="199" clip-path="url(#clipPath5)"
                  fill="rgb(255,255,181)" width="240" height="54" stroke="none"/>
            <rect x="334" y="199" clip-path="url(#clipPath5)" fill="none"
                  width="240" height="54" stroke="rgb(178,178,126)"/>
            <rect x="557" y="205" clip-path="url(#clipPath5)" fill="none"
                  width="13" height="10" stroke="black"/>
            <line clip-path="url(#clipPath5)" fill="none" x1="557" x2="570"
                  y1="208" y2="208" stroke="black"/>
            <path fill="black"
                  d="M390.1191 215 L390.1191 206.3281 L392.3691 206.3281 Q393.6699 206.3281 394.3643 206.8203 Q395.0586 207.3125 395.0586 208.2383 Q395.0586 209.8145 393.2773 210.4824 Q395.4043 211.1328 395.4043 212.832 Q395.4043 213.8867 394.7012 214.4434 Q393.998 215 392.6738 215 ZM391.3379 214.0801 L391.5898 214.0801 Q392.9434 214.0801 393.3418 213.9102 Q394.1035 213.5879 394.1035 212.7148 Q394.1035 211.9414 393.4121 211.4287 Q392.7207 210.916 391.6836 210.916 L391.3379 210.916 ZM391.3379 210.1367 L391.7305 210.1367 Q392.7148 210.1367 393.2568 209.7148 Q393.7988 209.293 393.7988 208.5254 Q393.7988 207.248 391.8184 207.248 L391.3379 207.248 ZM401.7207 214.7949 Q400.5605 215.1465 399.7344 215.1465 Q398.3281 215.1465 397.4404 214.2119 Q396.5527 213.2773 396.5527 211.7891 Q396.5527 210.3418 397.335 209.416 Q398.1172 208.4902 399.3359 208.4902 Q400.4902 208.4902 401.1201 209.3105 Q401.75 210.1309 401.75 211.6426 L401.7441 212 L397.7305 212 Q397.9824 214.2676 399.9512 214.2676 Q400.6719 214.2676 401.7207 213.8809 ZM397.7832 211.1328 L400.5898 211.1328 Q400.5898 209.3574 399.2656 209.3574 Q397.9355 209.3574 397.7832 211.1328 ZM404.4805 215 L402.6582 208.6367 L403.7891 208.6367 L405.1836 213.5645 L406.6895 208.6367 L407.8438 208.6367 L409.1621 213.5645 L410.7617 208.6367 L411.752 208.6367 L409.6777 215 L408.5176 215 L407.1699 210.0723 L405.6465 215 ZM412.9883 215 L412.9883 208.6367 L414.1426 208.6367 L414.1426 215 ZM412.9883 207.4824 L412.9883 206.3281 L414.1426 206.3281 L414.1426 207.4824 ZM416.457 215 L416.457 205.748 L417.6113 205.748 L417.6113 215 ZM419.9258 215 L419.9258 205.748 L421.0801 205.748 L421.0801 215 ZM423.3945 215 L423.3945 208.6367 L424.5488 208.6367 L424.5488 215 ZM423.3945 207.4824 L423.3945 206.3281 L424.5488 206.3281 L424.5488 207.4824 ZM426.8867 217.1152 L427.0215 216.1133 Q428.0234 216.5879 428.9961 216.5879 Q430.9473 216.5879 430.9473 214.5195 L430.9473 213.5176 Q430.3086 214.8535 428.8496 214.8535 Q427.707 214.8535 427.0332 214.0215 Q426.3594 213.1895 426.3594 211.7773 Q426.3594 210.3242 427.127 209.4102 Q427.8945 208.4961 429.1133 208.4961 Q430.1797 208.4961 430.9473 209.3633 L430.9473 208.6367 L432.1074 208.6367 L432.1074 213.2656 Q432.1074 214.7598 431.9521 215.4775 Q431.7969 216.1953 431.3691 216.6523 Q430.6133 217.4551 429.0195 217.4551 Q427.9062 217.4551 426.8867 217.1152 ZM430.9473 212.7969 L430.9473 210.1543 Q430.1855 209.3633 429.2891 209.3633 Q428.4922 209.3633 428.041 210.002 Q427.5898 210.6406 427.5898 211.7539 Q427.5898 213.8457 429.0605 213.8457 Q430.0625 213.8457 430.9473 212.7969 ZM438.3242 215 L438.3242 213.8047 Q437.4043 215.1465 436.0918 215.1465 Q435.2598 215.1465 434.7676 214.6221 Q434.2754 214.0977 434.2754 213.207 L434.2754 208.6367 L435.4297 208.6367 L435.4297 212.832 Q435.4297 213.5469 435.6377 213.8486 Q435.8457 214.1504 436.332 214.1504 Q437.3867 214.1504 438.3242 212.7617 L438.3242 208.6367 L439.4785 208.6367 L439.4785 215 ZM441.793 215 L441.793 208.6367 L442.9473 208.6367 L442.9473 209.832 Q443.8613 208.4961 445.1855 208.4961 Q446.0117 208.4961 446.5039 209.0205 Q446.9961 209.5449 446.9961 210.4297 L446.9961 215 L445.8418 215 L445.8418 210.8047 Q445.8418 210.0957 445.6338 209.7939 Q445.4258 209.4922 444.9453 209.4922 Q443.8848 209.4922 442.9473 210.8809 L442.9473 215 ZM449.2637 217.1152 L449.3984 216.1133 Q450.4004 216.5879 451.373 216.5879 Q453.3242 216.5879 453.3242 214.5195 L453.3242 213.5176 Q452.6855 214.8535 451.2266 214.8535 Q450.084 214.8535 449.4102 214.0215 Q448.7363 213.1895 448.7363 211.7773 Q448.7363 210.3242 449.5039 209.4102 Q450.2715 208.4961 451.4902 208.4961 Q452.5566 208.4961 453.3242 209.3633 L453.3242 208.6367 L454.4844 208.6367 L454.4844 213.2656 Q454.4844 214.7598 454.3291 215.4775 Q454.1738 216.1953 453.7461 216.6523 Q452.9902 217.4551 451.3965 217.4551 Q450.2832 217.4551 449.2637 217.1152 ZM453.3242 212.7969 L453.3242 210.1543 Q452.5625 209.3633 451.666 209.3633 Q450.8691 209.3633 450.418 210.002 Q449.9668 210.6406 449.9668 211.7539 Q449.9668 213.8457 451.4375 213.8457 Q452.4395 213.8457 453.3242 212.7969 ZM458.4102 215.1465 Q457.6191 215.1465 456.4883 214.7773 L456.4883 213.7168 Q457.6191 214.2793 458.457 214.2793 Q458.9551 214.2793 459.2832 214.0098 Q459.6113 213.7402 459.6113 213.3359 Q459.6113 212.7441 458.6914 212.3574 L458.0176 212.0703 Q456.5234 211.4492 456.5234 210.2832 Q456.5234 209.4512 457.1123 208.9736 Q457.7012 208.4961 458.7266 208.4961 Q459.2598 208.4961 460.0449 208.6426 L460.2852 208.6895 L460.2852 209.6504 Q459.3184 209.3633 458.75 209.3633 Q457.6367 209.3633 457.6367 210.1719 Q457.6367 210.6934 458.4805 211.0508 L459.0371 211.2852 Q459.9805 211.6836 460.373 212.126 Q460.7656 212.5684 460.7656 213.2305 Q460.7656 214.0684 460.1035 214.6074 Q459.4414 215.1465 458.4102 215.1465 ZM466.8184 215 L466.8184 213.8047 Q465.8984 215.1465 464.5859 215.1465 Q463.7539 215.1465 463.2617 214.6221 Q462.7695 214.0977 462.7695 213.207 L462.7695 208.6367 L463.9238 208.6367 L463.9238 212.832 Q463.9238 213.5469 464.1318 213.8486 Q464.3398 214.1504 464.8262 214.1504 Q465.8809 214.1504 466.8184 212.7617 L466.8184 208.6367 L467.9727 208.6367 L467.9727 215 ZM463.707 207.4824 L463.707 206.4688 L464.7207 206.4688 L464.7207 207.4824 ZM466.0215 207.4824 L466.0215 206.4688 L467.0352 206.4688 L467.0352 207.4824 ZM470.2871 215.0703 L470.2871 205.748 L471.4414 205.748 L471.4414 209.832 Q472.1504 208.4961 473.5684 208.4961 Q474.7168 208.4961 475.376 209.334 Q476.0352 210.1719 476.0352 211.625 Q476.0352 213.207 475.2881 214.1768 Q474.541 215.1465 473.3223 215.1465 Q472.1914 215.1465 471.4414 214.2793 L471.3008 215.0703 ZM471.4414 213.4824 Q472.332 214.2793 473.1406 214.2793 Q474.8047 214.2793 474.8047 211.7422 Q474.8047 209.5039 473.3281 209.5039 Q472.3613 209.5039 471.4414 210.5527 ZM482.5039 214.7949 Q481.3438 215.1465 480.5176 215.1465 Q479.1113 215.1465 478.2236 214.2119 Q477.3359 213.2773 477.3359 211.7891 Q477.3359 210.3418 478.1182 209.416 Q478.9004 208.4902 480.1191 208.4902 Q481.2734 208.4902 481.9033 209.3105 Q482.5332 210.1309 482.5332 211.6426 L482.5273 212 L478.5137 212 Q478.7656 214.2676 480.7344 214.2676 Q481.4551 214.2676 482.5039 213.8809 ZM478.5664 211.1328 L481.373 211.1328 Q481.373 209.3574 480.0488 209.3574 Q478.7188 209.3574 478.5664 211.1328 ZM484.5254 215 L484.5254 208.6367 L485.6797 208.6367 L485.6797 209.832 Q486.3652 208.4961 487.6719 208.4961 Q487.8477 208.4961 488.041 208.5254 L488.041 209.6035 Q487.7422 209.5039 487.5137 209.5039 Q486.418 209.5039 485.6797 210.8047 L485.6797 215 ZM491.123 215.1465 Q490.332 215.1465 489.2012 214.7773 L489.2012 213.7168 Q490.332 214.2793 491.1699 214.2793 Q491.668 214.2793 491.9961 214.0098 Q492.3242 213.7402 492.3242 213.3359 Q492.3242 212.7441 491.4043 212.3574 L490.7305 212.0703 Q489.2363 211.4492 489.2363 210.2832 Q489.2363 209.4512 489.8252 208.9736 Q490.4141 208.4961 491.4395 208.4961 Q491.9727 208.4961 492.7578 208.6426 L492.998 208.6895 L492.998 209.6504 Q492.0312 209.3633 491.4629 209.3633 Q490.3496 209.3633 490.3496 210.1719 Q490.3496 210.6934 491.1934 211.0508 L491.75 211.2852 Q492.6934 211.6836 493.0859 212.126 Q493.4785 212.5684 493.4785 213.2305 Q493.4785 214.0684 492.8164 214.6074 Q492.1543 215.1465 491.123 215.1465 ZM495.5527 215 L495.5527 208.6367 L496.707 208.6367 L496.707 215 ZM495.5527 207.4824 L495.5527 206.3281 L496.707 206.3281 L496.707 207.4824 ZM501.5059 215.1465 Q500.2168 215.1465 499.3672 214.1914 Q498.5176 213.2363 498.5176 211.7832 Q498.5176 210.2305 499.3584 209.3633 Q500.1992 208.4961 501.7051 208.4961 Q502.4492 208.4961 503.3691 208.7012 L503.3691 209.668 Q502.3906 209.3809 501.7754 209.3809 Q500.8906 209.3809 500.3545 210.0459 Q499.8184 210.7109 499.8184 211.8184 Q499.8184 212.8906 500.3691 213.5527 Q500.9199 214.2148 501.8105 214.2148 Q502.6016 214.2148 503.4395 213.8105 L503.4395 214.8066 Q502.3203 215.1465 501.5059 215.1465 ZM505.168 215 L505.168 205.748 L506.3223 205.748 L506.3223 209.832 Q507.2363 208.4961 508.5605 208.4961 Q509.3867 208.4961 509.8789 209.0205 Q510.3711 209.5449 510.3711 210.4297 L510.3711 215 L509.2168 215 L509.2168 210.8047 Q509.2168 210.0957 509.0088 209.7939 Q508.8008 209.4922 508.3203 209.4922 Q507.2598 209.4922 506.3223 210.8809 L506.3223 215 ZM514.5254 215.1465 Q513.6465 215.1465 513.1543 214.6426 Q512.6621 214.1387 512.6621 213.2422 L512.6621 209.5039 L511.8652 209.5039 L511.8652 208.6367 L512.6621 208.6367 L512.6621 207.4824 L513.8164 207.3711 L513.8164 208.6367 L515.4805 208.6367 L515.4805 209.5039 L513.8164 209.5039 L513.8164 213.0312 Q513.8164 214.2793 514.8945 214.2793 Q515.123 214.2793 515.4512 214.2031 L515.4512 215 Q514.918 215.1465 514.5254 215.1465 Z"
                  clip-path="url(#clipPath6)" stroke="none"/>
            <rect x="334" y="94" clip-path="url(#clipPath7)"
                  fill="rgb(255,255,181)" width="240" height="48" stroke="none"/>
            <rect x="334" y="94" clip-path="url(#clipPath7)" fill="none"
                  width="240" height="48" stroke="rgb(178,178,126)"/>
            <rect x="557" y="100" clip-path="url(#clipPath7)" fill="none"
                  width="13" height="10" stroke="black"/>
            <line clip-path="url(#clipPath7)" fill="none" x1="557" x2="570"
                  y1="103" y2="103" stroke="black"/>
            <path fill="black"
                  d="M402.6348 109.7656 Q401.0586 110.2168 399.8867 110.2168 Q397.8184 110.2168 396.7139 109.0391 Q395.6094 107.8613 395.6094 105.6641 Q395.6094 103.5078 396.7285 102.3096 Q397.8477 101.1113 399.8691 101.1113 Q401.1934 101.1113 402.623 101.5039 L402.623 102.6406 Q400.8301 102.0312 399.875 102.0312 Q398.4688 102.0312 397.6924 102.9863 Q396.916 103.9414 396.916 105.6758 Q396.916 107.3926 397.748 108.3447 Q398.5801 109.2969 400.0801 109.2969 Q400.6953 109.2969 401.4102 109.0801 L401.4102 106.2559 L402.6348 106.2559 ZM404.8262 110 L404.8262 103.6367 L405.9805 103.6367 L405.9805 104.832 Q406.666 103.4961 407.9727 103.4961 Q408.1484 103.4961 408.3418 103.5254 L408.3418 104.6035 Q408.043 104.5039 407.8145 104.5039 Q406.7188 104.5039 405.9805 105.8047 L405.9805 110 ZM413.7148 110 L413.7148 108.8047 Q412.7949 110.1465 411.4824 110.1465 Q410.6504 110.1465 410.1582 109.6221 Q409.666 109.0977 409.666 108.207 L409.666 103.6367 L410.8203 103.6367 L410.8203 107.832 Q410.8203 108.5469 411.0283 108.8486 Q411.2363 109.1504 411.7227 109.1504 Q412.7773 109.1504 413.7148 107.7617 L413.7148 103.6367 L414.8691 103.6367 L414.8691 110 ZM410.6035 102.4824 L410.6035 101.4688 L411.6172 101.4688 L411.6172 102.4824 ZM412.918 102.4824 L412.918 101.4688 L413.9316 101.4688 L413.9316 102.4824 ZM417.1836 110 L417.1836 103.6367 L418.3379 103.6367 L418.3379 104.832 Q419.252 103.4961 420.5762 103.4961 Q421.4023 103.4961 421.8945 104.0205 Q422.3867 104.5449 422.3867 105.4297 L422.3867 110 L421.2324 110 L421.2324 105.8047 Q421.2324 105.0957 421.0244 104.7939 Q420.8164 104.4922 420.3359 104.4922 Q419.2754 104.4922 418.3379 105.8809 L418.3379 110 ZM428.7148 110 L428.7148 108.8047 Q428.0117 110.1465 426.5938 110.1465 Q425.4453 110.1465 424.7861 109.3086 Q424.127 108.4707 424.127 107.0176 Q424.127 105.4297 424.874 104.4629 Q425.6211 103.4961 426.8398 103.4961 Q427.9707 103.4961 428.7148 104.3633 L428.7148 100.748 L429.875 100.748 L429.875 110 ZM428.7148 105.1543 Q427.8184 104.3633 427.0156 104.3633 Q425.3574 104.3633 425.3574 106.9004 Q425.3574 109.1328 426.834 109.1328 Q427.7949 109.1328 428.7148 108.084 ZM436.1621 110 L436.1621 108.8047 Q435.2422 110.1465 433.9297 110.1465 Q433.0977 110.1465 432.6055 109.6221 Q432.1133 109.0977 432.1133 108.207 L432.1133 103.6367 L433.2676 103.6367 L433.2676 107.832 Q433.2676 108.5469 433.4756 108.8486 Q433.6836 109.1504 434.1699 109.1504 Q435.2246 109.1504 436.1621 107.7617 L436.1621 103.6367 L437.3164 103.6367 L437.3164 110 ZM439.6309 110 L439.6309 103.6367 L440.7852 103.6367 L440.7852 104.832 Q441.6992 103.4961 443.0234 103.4961 Q443.8496 103.4961 444.3418 104.0205 Q444.834 104.5449 444.834 105.4297 L444.834 110 L443.6797 110 L443.6797 105.8047 Q443.6797 105.0957 443.4717 104.7939 Q443.2637 104.4922 442.7832 104.4922 Q441.7227 104.4922 440.7852 105.8809 L440.7852 110 ZM447.1016 112.1152 L447.2363 111.1133 Q448.2383 111.5879 449.2109 111.5879 Q451.1621 111.5879 451.1621 109.5195 L451.1621 108.5176 Q450.5234 109.8535 449.0645 109.8535 Q447.9219 109.8535 447.248 109.0215 Q446.5742 108.1895 446.5742 106.7773 Q446.5742 105.3242 447.3418 104.4102 Q448.1094 103.4961 449.3281 103.4961 Q450.3945 103.4961 451.1621 104.3633 L451.1621 103.6367 L452.3223 103.6367 L452.3223 108.2656 Q452.3223 109.7598 452.167 110.4775 Q452.0117 111.1953 451.584 111.6523 Q450.8281 112.4551 449.2344 112.4551 Q448.1211 112.4551 447.1016 112.1152 ZM451.1621 107.7969 L451.1621 105.1543 Q450.4004 104.3633 449.5039 104.3633 Q448.707 104.3633 448.2559 105.002 Q447.8047 105.6406 447.8047 106.7539 Q447.8047 108.8457 449.2754 108.8457 Q450.2773 108.8457 451.1621 107.7969 ZM456.248 110.1465 Q455.457 110.1465 454.3262 109.7773 L454.3262 108.7168 Q455.457 109.2793 456.2949 109.2793 Q456.793 109.2793 457.1211 109.0098 Q457.4492 108.7402 457.4492 108.3359 Q457.4492 107.7441 456.5293 107.3574 L455.8555 107.0703 Q454.3613 106.4492 454.3613 105.2832 Q454.3613 104.4512 454.9502 103.9736 Q455.5391 103.4961 456.5645 103.4961 Q457.0977 103.4961 457.8828 103.6426 L458.123 103.6895 L458.123 104.6504 Q457.1562 104.3633 456.5879 104.3633 Q455.4746 104.3633 455.4746 105.1719 Q455.4746 105.6934 456.3184 106.0508 L456.875 106.2852 Q457.8184 106.6836 458.2109 107.126 Q458.6035 107.5684 458.6035 108.2305 Q458.6035 109.0684 457.9414 109.6074 Q457.2793 110.1465 456.248 110.1465 ZM461.9961 110 L459.6289 103.6367 L460.7832 103.6367 L462.6348 108.5879 L464.5859 103.6367 L465.6641 103.6367 L463.1504 110 ZM469.3789 110.1465 Q468.0137 110.1465 467.1992 109.2412 Q466.3848 108.3359 466.3848 106.8184 Q466.3848 105.2832 467.2021 104.3896 Q468.0195 103.4961 469.4199 103.4961 Q470.8203 103.4961 471.6377 104.3896 Q472.4551 105.2832 472.4551 106.8066 Q472.4551 108.3652 471.6348 109.2559 Q470.8145 110.1465 469.3789 110.1465 ZM469.3965 109.2793 Q471.2305 109.2793 471.2305 106.8066 Q471.2305 104.3633 469.4199 104.3633 Q467.6152 104.3633 467.6152 106.8184 Q467.6152 109.2793 469.3965 109.2793 ZM474.2598 110 L474.2598 103.6367 L475.4141 103.6367 L475.4141 104.832 Q476.0996 103.4961 477.4062 103.4961 Q477.582 103.4961 477.7754 103.5254 L477.7754 104.6035 Q477.4766 104.5039 477.248 104.5039 Q476.1523 104.5039 475.4141 105.8047 L475.4141 110 ZM479.1699 110 L479.1699 100.748 L480.3242 100.748 L480.3242 104.832 Q481.2383 103.4961 482.5625 103.4961 Q483.3887 103.4961 483.8809 104.0205 Q484.373 104.5449 484.373 105.4297 L484.373 110 L483.2188 110 L483.2188 105.8047 Q483.2188 105.0957 483.0107 104.7939 Q482.8027 104.4922 482.3223 104.4922 Q481.2617 104.4922 480.3242 105.8809 L480.3242 110 ZM489.8984 109.1914 Q488.8613 110.1465 487.9004 110.1465 Q487.1094 110.1465 486.5879 109.6514 Q486.0664 109.1562 486.0664 108.4004 Q486.0664 107.3574 486.9424 106.7979 Q487.8184 106.2383 489.4531 106.2383 L489.7285 106.2383 L489.7285 105.4707 Q489.7285 104.3633 488.5918 104.3633 Q487.6777 104.3633 486.6172 104.9258 L486.6172 103.9707 Q487.7832 103.4961 488.8027 103.4961 Q489.8691 103.4961 490.376 103.9766 Q490.8828 104.457 490.8828 105.4707 L490.8828 108.3535 Q490.8828 109.3438 491.4922 109.3438 Q491.5684 109.3438 491.7148 109.3203 L491.7969 109.959 Q491.4043 110.1465 490.9297 110.1465 Q490.1211 110.1465 489.8984 109.1914 ZM489.7285 108.5645 L489.7285 106.918 L489.3418 106.9062 Q488.3926 106.9062 487.8066 107.2666 Q487.2207 107.627 487.2207 108.2129 Q487.2207 108.6289 487.5137 108.916 Q487.8066 109.2031 488.2285 109.2031 Q488.9492 109.2031 489.7285 108.5645 ZM493.2441 110.0703 L493.2441 100.748 L494.3984 100.748 L494.3984 104.832 Q495.1074 103.4961 496.5254 103.4961 Q497.6738 103.4961 498.333 104.334 Q498.9922 105.1719 498.9922 106.625 Q498.9922 108.207 498.2451 109.1768 Q497.498 110.1465 496.2793 110.1465 Q495.1484 110.1465 494.3984 109.2793 L494.2578 110.0703 ZM494.3984 108.4824 Q495.2891 109.2793 496.0977 109.2793 Q497.7617 109.2793 497.7617 106.7422 Q497.7617 104.5039 496.2852 104.5039 Q495.3184 104.5039 494.3984 105.5527 ZM505.4609 109.7949 Q504.3008 110.1465 503.4746 110.1465 Q502.0684 110.1465 501.1807 109.2119 Q500.293 108.2773 500.293 106.7891 Q500.293 105.3418 501.0752 104.416 Q501.8574 103.4902 503.0762 103.4902 Q504.2305 103.4902 504.8604 104.3105 Q505.4902 105.1309 505.4902 106.6426 L505.4844 107 L501.4707 107 Q501.7227 109.2676 503.6914 109.2676 Q504.4121 109.2676 505.4609 108.8809 ZM501.5234 106.1328 L504.3301 106.1328 Q504.3301 104.3574 503.0059 104.3574 Q501.6758 104.3574 501.5234 106.1328 ZM507.4824 110 L507.4824 103.6367 L508.6367 103.6367 L508.6367 104.832 Q509.5508 103.4961 510.875 103.4961 Q511.7012 103.4961 512.1934 104.0205 Q512.6855 104.5449 512.6855 105.4297 L512.6855 110 L511.5312 110 L511.5312 105.8047 Q511.5312 105.0957 511.3232 104.7939 Q511.1152 104.4922 510.6348 104.4922 Q509.5742 104.4922 508.6367 105.8809 L508.6367 110 Z"
                  clip-path="url(#clipPath8)" stroke="none"/>
            <path fill="rgb(255,255,181)"
                  d="M154 202 L170 225 L154 250 L258 250 L258 250 C266.8365 250 274 239.2548 274 226 C274 212.7452 266.8365 202 258 202 L154 202 L170 225"
                  clip-path="url(#clipPath9)" fill-rule="evenodd" stroke="none"/>
            <path fill="none"
                  d="M154 202 L170 225 L154 250 L258 250 L258 250 C266.8365 250 274 239.2548 274 226 C274 212.7452 266.8365 202 258 202 L154 202 L170 225"
                  clip-path="url(#clipPath9)" fill-rule="evenodd"
                  stroke="rgb(178,178,126)"/>
            <path fill="black"
                  d="M194.1543 218 L194.1543 211.6367 L195.3086 211.6367 L195.3086 218 ZM194.1543 210.4824 L194.1543 209.3281 L195.3086 209.3281 L195.3086 210.4824 ZM197.623 218 L197.623 211.6367 L198.7773 211.6367 L198.7773 212.832 Q199.6914 211.4961 201.0156 211.4961 Q201.8418 211.4961 202.334 212.0205 Q202.8262 212.5449 202.8262 213.4297 L202.8262 218 L201.6719 218 L201.6719 213.8047 Q201.6719 213.0957 201.4639 212.7939 Q201.2559 212.4922 200.7754 212.4922 Q199.7148 212.4922 198.7773 213.8809 L198.7773 218 ZM205.0703 218 L205.0703 211.6367 L206.2246 211.6367 L206.2246 218 ZM205.0703 210.4824 L205.0703 209.3281 L206.2246 209.3281 L206.2246 210.4824 ZM210.4492 218.1465 Q209.5703 218.1465 209.0781 217.6426 Q208.5859 217.1387 208.5859 216.2422 L208.5859 212.5039 L207.7891 212.5039 L207.7891 211.6367 L208.5859 211.6367 L208.5859 210.4824 L209.7402 210.3711 L209.7402 211.6367 L211.4043 211.6367 L211.4043 212.5039 L209.7402 212.5039 L209.7402 216.0312 Q209.7402 217.2793 210.8184 217.2793 Q211.0469 217.2793 211.375 217.2031 L211.375 218 Q210.8418 218.1465 210.4492 218.1465 ZM213.0273 218 L213.0273 211.6367 L214.1816 211.6367 L214.1816 218 ZM213.0273 210.4824 L213.0273 209.3281 L214.1816 209.3281 L214.1816 210.4824 ZM216.4961 218 L216.4961 211.6367 L217.6504 211.6367 L217.6504 218 ZM216.4961 210.4824 L216.4961 209.3281 L217.6504 209.3281 L217.6504 210.4824 ZM224.6289 217.7949 Q223.4688 218.1465 222.6426 218.1465 Q221.2363 218.1465 220.3486 217.2119 Q219.4609 216.2773 219.4609 214.7891 Q219.4609 213.3418 220.2432 212.416 Q221.0254 211.4902 222.2441 211.4902 Q223.3984 211.4902 224.0283 212.3105 Q224.6582 213.1309 224.6582 214.6426 L224.6523 215 L220.6387 215 Q220.8906 217.2676 222.8594 217.2676 Q223.5801 217.2676 224.6289 216.8809 ZM220.6914 214.1328 L223.498 214.1328 Q223.498 212.3574 222.1738 212.3574 Q220.8438 212.3574 220.6914 214.1328 ZM226.6504 218 L226.6504 211.6367 L227.8047 211.6367 L227.8047 212.832 Q228.4902 211.4961 229.7969 211.4961 Q229.9727 211.4961 230.166 211.5254 L230.166 212.6035 Q229.8672 212.5039 229.6387 212.5039 Q228.543 212.5039 227.8047 213.8047 L227.8047 218 ZM233.4707 218.1465 Q232.5918 218.1465 232.0996 217.6426 Q231.6074 217.1387 231.6074 216.2422 L231.6074 212.5039 L230.8105 212.5039 L230.8105 211.6367 L231.6074 211.6367 L231.6074 210.4824 L232.7617 210.3711 L232.7617 211.6367 L234.4258 211.6367 L234.4258 212.5039 L232.7617 212.5039 L232.7617 216.0312 Q232.7617 217.2793 233.8398 217.2793 Q234.0684 217.2793 234.3965 217.2031 L234.3965 218 Q233.8633 218.1465 233.4707 218.1465 Z"
                  clip-path="url(#clipPath10)" stroke="none"/>
            <rect x="346" y="310" clip-path="url(#clipPath11)"
                  fill="rgb(255,255,181)" width="216" rx="10" ry="10"
                  height="54" stroke="none"/>
            <rect x="346" y="310" clip-path="url(#clipPath11)" fill="none"
                  width="216" rx="10" ry="10" height="54"
                  stroke="rgb(178,178,126)"/>
            <polygon fill="none" clip-path="url(#clipPath11)"
                     points=" 545 321 553 321 553 318 559 323 553 328 553 325 545 325"
                     stroke="black"/>
            <path fill="black"
                  d="M387.5137 322.6836 L386.0371 318.9453 L384.5547 322.6836 ZM388.8145 326 L387.8711 323.5977 L384.1973 323.5977 L383.2422 326 L382.0996 326 L385.5391 317.3281 L386.7578 317.3281 L390.1445 326 ZM391.4336 326 L391.4336 319.6367 L392.5879 319.6367 L392.5879 320.832 Q393.502 319.4961 394.8262 319.4961 Q395.6523 319.4961 396.1445 320.0205 Q396.6367 320.5449 396.6367 321.4297 L396.6367 326 L395.4824 326 L395.4824 321.8047 Q395.4824 321.0957 395.2744 320.7939 Q395.0664 320.4922 394.5859 320.4922 Q393.5254 320.4922 392.5879 321.8809 L392.5879 326 ZM400.2578 320.5039 L400.2578 326 L399.0977 326 L399.0977 320.5039 L398.1953 320.5039 L398.1953 319.6367 L399.0977 319.6367 L399.0977 318.875 Q399.0977 316.6016 401.1719 316.6016 Q401.752 316.6016 402.4902 316.7949 L402.4902 317.709 Q401.7109 317.4688 401.2422 317.4688 Q400.6738 317.4688 400.4658 317.7412 Q400.2578 318.0137 400.2578 318.752 L400.2578 319.6367 L401.8457 319.6367 L401.8457 320.5039 ZM405.7832 326.1465 Q404.418 326.1465 403.6035 325.2412 Q402.7891 324.3359 402.7891 322.8184 Q402.7891 321.2832 403.6064 320.3896 Q404.4238 319.4961 405.8242 319.4961 Q407.2246 319.4961 408.042 320.3896 Q408.8594 321.2832 408.8594 322.8066 Q408.8594 324.3652 408.0391 325.2559 Q407.2188 326.1465 405.7832 326.1465 ZM405.8008 325.2793 Q407.6348 325.2793 407.6348 322.8066 Q407.6348 320.3633 405.8242 320.3633 Q404.0195 320.3633 404.0195 322.8184 Q404.0195 325.2793 405.8008 325.2793 ZM410.6641 326 L410.6641 319.6367 L411.8184 319.6367 L411.8184 320.832 Q412.5039 319.4961 413.8105 319.4961 Q413.9863 319.4961 414.1797 319.5254 L414.1797 320.6035 Q413.8809 320.5039 413.6523 320.5039 Q412.5566 320.5039 411.8184 321.8047 L411.8184 326 ZM419.6582 326 L419.6582 324.8047 Q418.9551 326.1465 417.5371 326.1465 Q416.3887 326.1465 415.7295 325.3086 Q415.0703 324.4707 415.0703 323.0176 Q415.0703 321.4297 415.8174 320.4629 Q416.5645 319.4961 417.7832 319.4961 Q418.9141 319.4961 419.6582 320.3633 L419.6582 316.748 L420.8184 316.748 L420.8184 326 ZM419.6582 321.1543 Q418.7617 320.3633 417.959 320.3633 Q416.3008 320.3633 416.3008 322.9004 Q416.3008 325.1328 417.7773 325.1328 Q418.7383 325.1328 419.6582 324.084 ZM427.791 325.7949 Q426.6309 326.1465 425.8047 326.1465 Q424.3984 326.1465 423.5107 325.2119 Q422.623 324.2773 422.623 322.7891 Q422.623 321.3418 423.4053 320.416 Q424.1875 319.4902 425.4062 319.4902 Q426.5605 319.4902 427.1904 320.3105 Q427.8203 321.1309 427.8203 322.6426 L427.8145 323 L423.8008 323 Q424.0527 325.2676 426.0215 325.2676 Q426.7422 325.2676 427.791 324.8809 ZM423.8535 322.1328 L426.6602 322.1328 Q426.6602 320.3574 425.3359 320.3574 Q424.0059 320.3574 423.8535 322.1328 ZM429.8125 326 L429.8125 319.6367 L430.9668 319.6367 L430.9668 320.832 Q431.6523 319.4961 432.959 319.4961 Q433.1348 319.4961 433.3281 319.5254 L433.3281 320.6035 Q433.0293 320.5039 432.8008 320.5039 Q431.7051 320.5039 430.9668 321.8047 L430.9668 326 ZM438.7012 326 L438.7012 324.8047 Q437.7812 326.1465 436.4688 326.1465 Q435.6367 326.1465 435.1445 325.6221 Q434.6523 325.0977 434.6523 324.207 L434.6523 319.6367 L435.8066 319.6367 L435.8066 323.832 Q435.8066 324.5469 436.0146 324.8486 Q436.2227 325.1504 436.709 325.1504 Q437.7637 325.1504 438.7012 323.7617 L438.7012 319.6367 L439.8555 319.6367 L439.8555 326 ZM442.1699 326 L442.1699 319.6367 L443.3242 319.6367 L443.3242 320.832 Q444.2383 319.4961 445.5625 319.4961 Q446.3887 319.4961 446.8809 320.0205 Q447.373 320.5449 447.373 321.4297 L447.373 326 L446.2188 326 L446.2188 321.8047 Q446.2188 321.0957 446.0107 320.7939 Q445.8027 320.4922 445.3223 320.4922 Q444.2617 320.4922 443.3242 321.8809 L443.3242 326 ZM449.6406 328.1152 L449.7754 327.1133 Q450.7773 327.5879 451.75 327.5879 Q453.7012 327.5879 453.7012 325.5195 L453.7012 324.5176 Q453.0625 325.8535 451.6035 325.8535 Q450.4609 325.8535 449.7871 325.0215 Q449.1133 324.1895 449.1133 322.7773 Q449.1133 321.3242 449.8809 320.4102 Q450.6484 319.4961 451.8672 319.4961 Q452.9336 319.4961 453.7012 320.3633 L453.7012 319.6367 L454.8613 319.6367 L454.8613 324.2656 Q454.8613 325.7598 454.7061 326.4775 Q454.5508 327.1953 454.123 327.6523 Q453.3672 328.4551 451.7734 328.4551 Q450.6602 328.4551 449.6406 328.1152 ZM453.7012 323.7969 L453.7012 321.1543 Q452.9395 320.3633 452.043 320.3633 Q451.2461 320.3633 450.7949 321.002 Q450.3438 321.6406 450.3438 322.7539 Q450.3438 324.8457 451.8145 324.8457 Q452.8164 324.8457 453.7012 323.7969 ZM461.7637 325.7949 Q460.6035 326.1465 459.7773 326.1465 Q458.3711 326.1465 457.4834 325.2119 Q456.5957 324.2773 456.5957 322.7891 Q456.5957 321.3418 457.3779 320.416 Q458.1602 319.4902 459.3789 319.4902 Q460.5332 319.4902 461.1631 320.3105 Q461.793 321.1309 461.793 322.6426 L461.7871 323 L457.7734 323 Q458.0254 325.2676 459.9941 325.2676 Q460.7148 325.2676 461.7637 324.8809 ZM457.8262 322.1328 L460.6328 322.1328 Q460.6328 320.3574 459.3086 320.3574 Q457.9785 320.3574 457.8262 322.1328 ZM463.7852 326 L463.7852 319.6367 L464.9395 319.6367 L464.9395 320.832 Q465.8535 319.4961 467.1777 319.4961 Q468.0039 319.4961 468.4961 320.0205 Q468.9883 320.5449 468.9883 321.4297 L468.9883 326 L467.834 326 L467.834 321.8047 Q467.834 321.0957 467.626 320.7939 Q467.418 320.4922 466.9375 320.4922 Q465.877 320.4922 464.9395 321.8809 L464.9395 326 ZM479.6934 325.7949 Q478.5332 326.1465 477.707 326.1465 Q476.3008 326.1465 475.4131 325.2119 Q474.5254 324.2773 474.5254 322.7891 Q474.5254 321.3418 475.3076 320.416 Q476.0898 319.4902 477.3086 319.4902 Q478.4629 319.4902 479.0928 320.3105 Q479.7227 321.1309 479.7227 322.6426 L479.7168 323 L475.7031 323 Q475.9551 325.2676 477.9238 325.2676 Q478.6445 325.2676 479.6934 324.8809 ZM475.7559 322.1328 L478.5625 322.1328 Q478.5625 320.3574 477.2383 320.3574 Q475.9082 320.3574 475.7559 322.1328 ZM481.7148 326 L481.7148 319.6367 L482.8691 319.6367 L482.8691 320.832 Q483.5547 319.4961 484.8613 319.4961 Q485.0371 319.4961 485.2305 319.5254 L485.2305 320.6035 Q484.9316 320.5039 484.7031 320.5039 Q483.6074 320.5039 482.8691 321.8047 L482.8691 326 ZM486.625 326 L486.625 319.6367 L487.7793 319.6367 L487.7793 320.832 Q488.623 319.4961 489.9473 319.4961 Q491.2246 319.4961 491.6875 320.832 Q492.5078 319.4902 493.8203 319.4902 Q494.6641 319.4902 495.127 319.9854 Q495.5898 320.4805 495.5898 321.3711 L495.5898 326 L494.4297 326 L494.4297 321.5527 Q494.4297 320.4629 493.5684 320.4629 Q492.6719 320.4629 491.6875 321.7344 L491.6875 326 L490.5273 326 L490.5273 321.5527 Q490.5273 320.457 489.6484 320.457 Q488.7754 320.457 487.7793 321.7344 L487.7793 326 ZM497.8281 326 L497.8281 319.6367 L498.9824 319.6367 L498.9824 326 ZM497.8281 318.4824 L497.8281 317.3281 L498.9824 317.3281 L498.9824 318.4824 ZM503.207 326.1465 Q502.3281 326.1465 501.8359 325.6426 Q501.3438 325.1387 501.3438 324.2422 L501.3438 320.5039 L500.5469 320.5039 L500.5469 319.6367 L501.3438 319.6367 L501.3438 318.4824 L502.498 318.3711 L502.498 319.6367 L504.1621 319.6367 L504.1621 320.5039 L502.498 320.5039 L502.498 324.0312 Q502.498 325.2793 503.5762 325.2793 Q503.8047 325.2793 504.1328 325.2031 L504.1328 326 Q503.5996 326.1465 503.207 326.1465 ZM507.6953 326.1465 Q506.8164 326.1465 506.3242 325.6426 Q505.832 325.1387 505.832 324.2422 L505.832 320.5039 L505.0352 320.5039 L505.0352 319.6367 L505.832 319.6367 L505.832 318.4824 L506.9863 318.3711 L506.9863 319.6367 L508.6504 319.6367 L508.6504 320.5039 L506.9863 320.5039 L506.9863 324.0312 Q506.9863 325.2793 508.0645 325.2793 Q508.293 325.2793 508.6211 325.2031 L508.6211 326 Q508.0879 326.1465 507.6953 326.1465 ZM514.9375 325.7949 Q513.7773 326.1465 512.9512 326.1465 Q511.5449 326.1465 510.6572 325.2119 Q509.7695 324.2773 509.7695 322.7891 Q509.7695 321.3418 510.5518 320.416 Q511.334 319.4902 512.5527 319.4902 Q513.707 319.4902 514.3369 320.3105 Q514.9668 321.1309 514.9668 322.6426 L514.9609 323 L510.9473 323 Q511.1992 325.2676 513.168 325.2676 Q513.8887 325.2676 514.9375 324.8809 ZM511 322.1328 L513.8066 322.1328 Q513.8066 320.3574 512.4824 320.3574 Q511.1523 320.3574 511 322.1328 ZM516.959 326 L516.959 316.748 L518.1133 316.748 L518.1133 326 ZM520.4277 326 L520.4277 319.6367 L521.582 319.6367 L521.582 320.832 Q522.4961 319.4961 523.8203 319.4961 Q524.6465 319.4961 525.1387 320.0205 Q525.6309 320.5449 525.6309 321.4297 L525.6309 326 L524.4766 326 L524.4766 321.8047 Q524.4766 321.0957 524.2686 320.7939 Q524.0605 320.4922 523.5801 320.4922 Q522.5195 320.4922 521.582 321.8809 L521.582 326 Z"
                  clip-path="url(#clipPath12)" stroke="none"/>
            <rect x="346" y="526" clip-path="url(#clipPath13)"
                  fill="rgb(255,255,181)" width="216" height="48" stroke="none"/>
            <rect x="346" y="526" clip-path="url(#clipPath13)" fill="none"
                  width="216" height="48" stroke="rgb(178,178,126)"/>
            <rect x="545" y="532" clip-path="url(#clipPath13)" fill="none"
                  width="13" height="10" stroke="black"/>
            <line clip-path="url(#clipPath13)" fill="none" x1="545" x2="558"
                  y1="535" y2="535" stroke="black"/>
            <path fill="black"
                  d="M396.1191 542 L396.1191 533.3281 L399.002 533.3281 Q400.291 533.3281 401.085 533.6152 Q401.8789 533.9023 402.459 534.5879 Q403.3789 535.6777 403.3789 537.459 Q403.3789 539.6211 402.2363 540.8105 Q401.0938 542 399.0195 542 ZM397.3496 541.0801 L398.9258 541.0801 Q400.6133 541.0801 401.3164 540.1719 Q402.0723 539.2051 402.0723 537.5762 Q402.0723 536.0469 401.3281 535.1738 Q400.877 534.6406 400.25 534.4443 Q399.623 534.248 398.3633 534.248 L397.3496 534.248 ZM405.1426 542 L405.1426 535.6367 L406.2969 535.6367 L406.2969 542 ZM405.1426 534.4824 L405.1426 533.3281 L406.2969 533.3281 L406.2969 534.4824 ZM408.6348 544.1152 L408.7695 543.1133 Q409.7715 543.5879 410.7441 543.5879 Q412.6953 543.5879 412.6953 541.5195 L412.6953 540.5176 Q412.0566 541.8535 410.5977 541.8535 Q409.4551 541.8535 408.7812 541.0215 Q408.1074 540.1895 408.1074 538.7773 Q408.1074 537.3242 408.875 536.4102 Q409.6426 535.4961 410.8613 535.4961 Q411.9277 535.4961 412.6953 536.3633 L412.6953 535.6367 L413.8555 535.6367 L413.8555 540.2656 Q413.8555 541.7598 413.7002 542.4775 Q413.5449 543.1953 413.1172 543.6523 Q412.3613 544.4551 410.7676 544.4551 Q409.6543 544.4551 408.6348 544.1152 ZM412.6953 539.7969 L412.6953 537.1543 Q411.9336 536.3633 411.0371 536.3633 Q410.2402 536.3633 409.7891 537.002 Q409.3379 537.6406 409.3379 538.7539 Q409.3379 540.8457 410.8086 540.8457 Q411.8105 540.8457 412.6953 539.7969 ZM416.0938 542 L416.0938 535.6367 L417.248 535.6367 L417.248 542 ZM416.0938 534.4824 L416.0938 533.3281 L417.248 533.3281 L417.248 534.4824 ZM421.4727 542.1465 Q420.5938 542.1465 420.1016 541.6426 Q419.6094 541.1387 419.6094 540.2422 L419.6094 536.5039 L418.8125 536.5039 L418.8125 535.6367 L419.6094 535.6367 L419.6094 534.4824 L420.7637 534.3711 L420.7637 535.6367 L422.4277 535.6367 L422.4277 536.5039 L420.7637 536.5039 L420.7637 540.0312 Q420.7637 541.2793 421.8418 541.2793 Q422.0703 541.2793 422.3984 541.2031 L422.3984 542 Q421.8652 542.1465 421.4727 542.1465 ZM427.332 541.1914 Q426.2949 542.1465 425.334 542.1465 Q424.543 542.1465 424.0215 541.6514 Q423.5 541.1562 423.5 540.4004 Q423.5 539.3574 424.376 538.7979 Q425.252 538.2383 426.8867 538.2383 L427.1621 538.2383 L427.1621 537.4707 Q427.1621 536.3633 426.0254 536.3633 Q425.1113 536.3633 424.0508 536.9258 L424.0508 535.9707 Q425.2168 535.4961 426.2363 535.4961 Q427.3027 535.4961 427.8096 535.9766 Q428.3164 536.457 428.3164 537.4707 L428.3164 540.3535 Q428.3164 541.3438 428.9258 541.3438 Q429.002 541.3438 429.1484 541.3203 L429.2305 541.959 Q428.8379 542.1465 428.3633 542.1465 Q427.5547 542.1465 427.332 541.1914 ZM427.1621 540.5645 L427.1621 538.918 L426.7754 538.9062 Q425.8262 538.9062 425.2402 539.2666 Q424.6543 539.627 424.6543 540.2129 Q424.6543 540.6289 424.9473 540.916 Q425.2402 541.2031 425.6621 541.2031 Q426.3828 541.2031 427.1621 540.5645 ZM430.6777 542 L430.6777 532.748 L431.832 532.748 L431.832 542 ZM438.8105 541.7949 Q437.6504 542.1465 436.8242 542.1465 Q435.418 542.1465 434.5303 541.2119 Q433.6426 540.2773 433.6426 538.7891 Q433.6426 537.3418 434.4248 536.416 Q435.207 535.4902 436.4258 535.4902 Q437.5801 535.4902 438.21 536.3105 Q438.8398 537.1309 438.8398 538.6426 L438.834 539 L434.8203 539 Q435.0723 541.2676 437.041 541.2676 Q437.7617 541.2676 438.8105 540.8809 ZM434.873 538.1328 L437.6797 538.1328 Q437.6797 536.3574 436.3555 536.3574 Q435.0254 536.3574 434.873 538.1328 ZM444.5938 542 L444.5938 533.3281 L447.2188 533.3281 Q448.4668 533.3281 449.1318 533.8789 Q449.7969 534.4297 449.7969 535.4785 Q449.7969 537.2129 448.0449 537.9395 L450.9395 542 L449.4277 542 L446.9609 538.332 L445.8125 538.332 L445.8125 542 ZM445.8125 537.4121 L446.2109 537.4121 Q448.5312 537.4121 448.5312 535.5898 Q448.5312 534.248 446.5859 534.248 L445.8125 534.248 ZM456.8809 541.7949 Q455.7207 542.1465 454.8945 542.1465 Q453.4883 542.1465 452.6006 541.2119 Q451.7129 540.2773 451.7129 538.7891 Q451.7129 537.3418 452.4951 536.416 Q453.2773 535.4902 454.4961 535.4902 Q455.6504 535.4902 456.2803 536.3105 Q456.9102 537.1309 456.9102 538.6426 L456.9043 539 L452.8906 539 Q453.1426 541.2676 455.1113 541.2676 Q455.832 541.2676 456.8809 540.8809 ZM452.9434 538.1328 L455.75 538.1328 Q455.75 536.3574 454.4258 536.3574 Q453.0957 536.3574 452.9434 538.1328 ZM458.9258 544.1152 L459.0605 543.1133 Q460.0625 543.5879 461.0352 543.5879 Q462.9863 543.5879 462.9863 541.5195 L462.9863 540.5176 Q462.3477 541.8535 460.8887 541.8535 Q459.7461 541.8535 459.0723 541.0215 Q458.3984 540.1895 458.3984 538.7773 Q458.3984 537.3242 459.166 536.4102 Q459.9336 535.4961 461.1523 535.4961 Q462.2188 535.4961 462.9863 536.3633 L462.9863 535.6367 L464.1465 535.6367 L464.1465 540.2656 Q464.1465 541.7598 463.9912 542.4775 Q463.8359 543.1953 463.4082 543.6523 Q462.6523 544.4551 461.0586 544.4551 Q459.9453 544.4551 458.9258 544.1152 ZM462.9863 539.7969 L462.9863 537.1543 Q462.2246 536.3633 461.3281 536.3633 Q460.5312 536.3633 460.0801 537.002 Q459.6289 537.6406 459.6289 538.7539 Q459.6289 540.8457 461.0996 540.8457 Q462.1016 540.8457 462.9863 539.7969 ZM471.0488 541.7949 Q469.8887 542.1465 469.0625 542.1465 Q467.6562 542.1465 466.7686 541.2119 Q465.8809 540.2773 465.8809 538.7891 Q465.8809 537.3418 466.6631 536.416 Q467.4453 535.4902 468.6641 535.4902 Q469.8184 535.4902 470.4482 536.3105 Q471.0781 537.1309 471.0781 538.6426 L471.0723 539 L467.0586 539 Q467.3105 541.2676 469.2793 541.2676 Q470 541.2676 471.0488 540.8809 ZM467.1113 538.1328 L469.918 538.1328 Q469.918 536.3574 468.5938 536.3574 Q467.2637 536.3574 467.1113 538.1328 ZM473.0703 542 L473.0703 532.748 L474.2246 532.748 L474.2246 542 ZM476.5391 542 L476.5391 535.6367 L477.6934 535.6367 L477.6934 536.832 Q478.5371 535.4961 479.8613 535.4961 Q481.1387 535.4961 481.6016 536.832 Q482.4219 535.4902 483.7344 535.4902 Q484.5781 535.4902 485.041 535.9854 Q485.5039 536.4805 485.5039 537.3711 L485.5039 542 L484.3438 542 L484.3438 537.5527 Q484.3438 536.4629 483.4824 536.4629 Q482.5859 536.4629 481.6016 537.7344 L481.6016 542 L480.4414 542 L480.4414 537.5527 Q480.4414 536.457 479.5625 536.457 Q478.6895 536.457 477.6934 537.7344 L477.6934 542 ZM491.0234 541.1914 Q489.9863 542.1465 489.0254 542.1465 Q488.2344 542.1465 487.7129 541.6514 Q487.1914 541.1562 487.1914 540.4004 Q487.1914 539.3574 488.0674 538.7979 Q488.9434 538.2383 490.5781 538.2383 L490.8535 538.2383 L490.8535 537.4707 Q490.8535 536.3633 489.7168 536.3633 Q488.8027 536.3633 487.7422 536.9258 L487.7422 535.9707 Q488.9082 535.4961 489.9277 535.4961 Q490.9941 535.4961 491.501 535.9766 Q492.0078 536.457 492.0078 537.4707 L492.0078 540.3535 Q492.0078 541.3438 492.6172 541.3438 Q492.6934 541.3438 492.8398 541.3203 L492.9219 541.959 Q492.5293 542.1465 492.0547 542.1465 Q491.2461 542.1465 491.0234 541.1914 ZM490.8535 540.5645 L490.8535 538.918 L490.4668 538.9062 Q489.5176 538.9062 488.9316 539.2666 Q488.3457 539.627 488.3457 540.2129 Q488.3457 540.6289 488.6387 540.916 Q488.9316 541.2031 489.3535 541.2031 Q490.0742 541.2031 490.8535 540.5645 ZM496.2793 542.1465 Q495.4004 542.1465 494.9082 541.6426 Q494.416 541.1387 494.416 540.2422 L494.416 536.5039 L493.6191 536.5039 L493.6191 535.6367 L494.416 535.6367 L494.416 534.4824 L495.5703 534.3711 L495.5703 535.6367 L497.2344 535.6367 L497.2344 536.5039 L495.5703 536.5039 L495.5703 540.0312 Q495.5703 541.2793 496.6484 541.2793 Q496.877 541.2793 497.2051 541.2031 L497.2051 542 Q496.6719 542.1465 496.2793 542.1465 ZM498.8574 542 L498.8574 535.6367 L500.0117 535.6367 L500.0117 536.832 Q500.6973 535.4961 502.0039 535.4961 Q502.1797 535.4961 502.373 535.5254 L502.373 536.6035 Q502.0742 536.5039 501.8457 536.5039 Q500.75 536.5039 500.0117 537.8047 L500.0117 542 ZM503.7676 542 L503.7676 535.6367 L504.9219 535.6367 L504.9219 542 ZM503.7676 534.4824 L503.7676 533.3281 L504.9219 533.3281 L504.9219 534.4824 ZM506.5977 542 L509.0176 538.7129 L506.668 535.6367 L508.0391 535.6367 L509.8965 538.0859 L511.5781 535.6367 L512.7031 535.6367 L510.5 538.8652 L512.8965 542 L511.5254 542 L509.6094 539.4805 L507.7578 542 Z"
                  clip-path="url(#clipPath14)" stroke="none"/>
            <rect x="346" y="418" clip-path="url(#clipPath15)"
                  fill="rgb(255,255,181)" width="216" height="48" stroke="none"/>
            <rect x="346" y="418" clip-path="url(#clipPath15)" fill="none"
                  width="216" height="48" stroke="rgb(178,178,126)"/>
            <rect x="545" y="424" clip-path="url(#clipPath15)" fill="none"
                  width="13" height="10" stroke="black"/>
            <line clip-path="url(#clipPath15)" fill="none" x1="545" x2="558"
                  y1="427" y2="427" stroke="black"/>
            <path fill="black"
                  d="M371.1191 434 L371.1191 425.3281 L372.2734 425.3281 L372.2734 429.5938 L375.7832 425.3281 L377.0195 425.3281 L373.6211 429.4648 L377.623 434 L376.0645 434 L372.2734 429.6055 L372.2734 434 ZM382.2695 433.1914 Q381.2324 434.1465 380.2715 434.1465 Q379.4805 434.1465 378.959 433.6514 Q378.4375 433.1562 378.4375 432.4004 Q378.4375 431.3574 379.3135 430.7979 Q380.1895 430.2383 381.8242 430.2383 L382.0996 430.2383 L382.0996 429.4707 Q382.0996 428.3633 380.9629 428.3633 Q380.0488 428.3633 378.9883 428.9258 L378.9883 427.9707 Q380.1543 427.4961 381.1738 427.4961 Q382.2402 427.4961 382.7471 427.9766 Q383.2539 428.457 383.2539 429.4707 L383.2539 432.3535 Q383.2539 433.3438 383.8633 433.3438 Q383.9395 433.3438 384.0859 433.3203 L384.168 433.959 Q383.7754 434.1465 383.3008 434.1465 Q382.4922 434.1465 382.2695 433.1914 ZM382.0996 432.5645 L382.0996 430.918 L381.7129 430.9062 Q380.7637 430.9062 380.1777 431.2666 Q379.5918 431.627 379.5918 432.2129 Q379.5918 432.6289 379.8848 432.916 Q380.1777 433.2031 380.5996 433.2031 Q381.3203 433.2031 382.0996 432.5645 ZM385.6152 434 L385.6152 427.6367 L386.7695 427.6367 L386.7695 428.832 Q387.6836 427.4961 389.0078 427.4961 Q389.834 427.4961 390.3262 428.0205 Q390.8184 428.5449 390.8184 429.4297 L390.8184 434 L389.6641 434 L389.6641 429.8047 Q389.6641 429.0957 389.4561 428.7939 Q389.248 428.4922 388.7676 428.4922 Q387.707 428.4922 386.7695 429.8809 L386.7695 434 ZM394.9727 434.1465 Q394.0938 434.1465 393.6016 433.6426 Q393.1094 433.1387 393.1094 432.2422 L393.1094 428.5039 L392.3125 428.5039 L392.3125 427.6367 L393.1094 427.6367 L393.1094 426.4824 L394.2637 426.3711 L394.2637 427.6367 L395.9277 427.6367 L395.9277 428.5039 L394.2637 428.5039 L394.2637 432.0312 Q394.2637 433.2793 395.3418 433.2793 Q395.5703 433.2793 395.8984 433.2031 L395.8984 434 Q395.3652 434.1465 394.9727 434.1465 ZM400.041 434.1465 Q398.6758 434.1465 397.8613 433.2412 Q397.0469 432.3359 397.0469 430.8184 Q397.0469 429.2832 397.8643 428.3896 Q398.6816 427.4961 400.082 427.4961 Q401.4824 427.4961 402.2998 428.3896 Q403.1172 429.2832 403.1172 430.8066 Q403.1172 432.3652 402.2969 433.2559 Q401.4766 434.1465 400.041 434.1465 ZM400.0586 433.2793 Q401.8926 433.2793 401.8926 430.8066 Q401.8926 428.3633 400.082 428.3633 Q398.2773 428.3633 398.2773 430.8184 Q398.2773 433.2793 400.0586 433.2793 ZM404.9219 434 L404.9219 427.6367 L406.0762 427.6367 L406.0762 428.832 Q406.9902 427.4961 408.3145 427.4961 Q409.1406 427.4961 409.6328 428.0205 Q410.125 428.5449 410.125 429.4297 L410.125 434 L408.9707 434 L408.9707 429.8047 Q408.9707 429.0957 408.7627 428.7939 Q408.5547 428.4922 408.0742 428.4922 Q407.0137 428.4922 406.0762 429.8809 L406.0762 434 ZM414.0566 434.1465 Q413.2656 434.1465 412.1348 433.7773 L412.1348 432.7168 Q413.2656 433.2793 414.1035 433.2793 Q414.6016 433.2793 414.9297 433.0098 Q415.2578 432.7402 415.2578 432.3359 Q415.2578 431.7441 414.3379 431.3574 L413.6641 431.0703 Q412.1699 430.4492 412.1699 429.2832 Q412.1699 428.4512 412.7588 427.9736 Q413.3477 427.4961 414.373 427.4961 Q414.9062 427.4961 415.6914 427.6426 L415.9316 427.6895 L415.9316 428.6504 Q414.9648 428.3633 414.3965 428.3633 Q413.2832 428.3633 413.2832 429.1719 Q413.2832 429.6934 414.127 430.0508 L414.6836 430.2852 Q415.627 430.6836 416.0195 431.126 Q416.4121 431.5684 416.4121 432.2305 Q416.4121 433.0684 415.75 433.6074 Q415.0879 434.1465 414.0566 434.1465 ZM421.7676 433.1914 Q420.7305 434.1465 419.7695 434.1465 Q418.9785 434.1465 418.457 433.6514 Q417.9355 433.1562 417.9355 432.4004 Q417.9355 431.3574 418.8115 430.7979 Q419.6875 430.2383 421.3223 430.2383 L421.5977 430.2383 L421.5977 429.4707 Q421.5977 428.3633 420.4609 428.3633 Q419.5469 428.3633 418.4863 428.9258 L418.4863 427.9707 Q419.6523 427.4961 420.6719 427.4961 Q421.7383 427.4961 422.2451 427.9766 Q422.752 428.457 422.752 429.4707 L422.752 432.3535 Q422.752 433.3438 423.3613 433.3438 Q423.4375 433.3438 423.584 433.3203 L423.666 433.959 Q423.2734 434.1465 422.7988 434.1465 Q421.9902 434.1465 421.7676 433.1914 ZM421.5977 432.5645 L421.5977 430.918 L421.2109 430.9062 Q420.2617 430.9062 419.6758 431.2666 Q419.0898 431.627 419.0898 432.2129 Q419.0898 432.6289 419.3828 432.916 Q419.6758 433.2031 420.0977 433.2031 Q420.8184 433.2031 421.5977 432.5645 ZM425.1133 434 L425.1133 427.6367 L426.2676 427.6367 L426.2676 428.832 Q427.1816 427.4961 428.5059 427.4961 Q429.332 427.4961 429.8242 428.0205 Q430.3164 428.5449 430.3164 429.4297 L430.3164 434 L429.1621 434 L429.1621 429.8047 Q429.1621 429.0957 428.9541 428.7939 Q428.7461 428.4922 428.2656 428.4922 Q427.2051 428.4922 426.2676 429.8809 L426.2676 434 ZM433.9375 428.5039 L433.9375 434 L432.7773 434 L432.7773 428.5039 L431.875 428.5039 L431.875 427.6367 L432.7773 427.6367 L432.7773 426.875 Q432.7773 424.6016 434.8516 424.6016 Q435.4316 424.6016 436.1699 424.7949 L436.1699 425.709 Q435.3906 425.4688 434.9219 425.4688 Q434.3535 425.4688 434.1455 425.7412 Q433.9375 426.0137 433.9375 426.752 L433.9375 427.6367 L435.5254 427.6367 L435.5254 428.5039 ZM439.4629 434.1465 Q438.0977 434.1465 437.2832 433.2412 Q436.4688 432.3359 436.4688 430.8184 Q436.4688 429.2832 437.2861 428.3896 Q438.1035 427.4961 439.5039 427.4961 Q440.9043 427.4961 441.7217 428.3896 Q442.5391 429.2832 442.5391 430.8066 Q442.5391 432.3652 441.7188 433.2559 Q440.8984 434.1465 439.4629 434.1465 ZM439.4805 433.2793 Q441.3145 433.2793 441.3145 430.8066 Q441.3145 428.3633 439.5039 428.3633 Q437.6992 428.3633 437.6992 430.8184 Q437.6992 433.2793 439.4805 433.2793 ZM444.3438 434 L444.3438 427.6367 L445.498 427.6367 L445.498 428.832 Q446.1836 427.4961 447.4902 427.4961 Q447.666 427.4961 447.8594 427.5254 L447.8594 428.6035 Q447.5605 428.5039 447.332 428.5039 Q446.2363 428.5039 445.498 429.8047 L445.498 434 ZM453.3379 434 L453.3379 432.8047 Q452.6348 434.1465 451.2168 434.1465 Q450.0684 434.1465 449.4092 433.3086 Q448.75 432.4707 448.75 431.0176 Q448.75 429.4297 449.4971 428.4629 Q450.2441 427.4961 451.4629 427.4961 Q452.5938 427.4961 453.3379 428.3633 L453.3379 424.748 L454.498 424.748 L454.498 434 ZM453.3379 429.1543 Q452.4414 428.3633 451.6387 428.3633 Q449.9805 428.3633 449.9805 430.9004 Q449.9805 433.1328 451.457 433.1328 Q452.418 433.1328 453.3379 432.084 ZM461.4707 433.7949 Q460.3105 434.1465 459.4844 434.1465 Q458.0781 434.1465 457.1904 433.2119 Q456.3027 432.2773 456.3027 430.7891 Q456.3027 429.3418 457.085 428.416 Q457.8672 427.4902 459.0859 427.4902 Q460.2402 427.4902 460.8701 428.3105 Q461.5 429.1309 461.5 430.6426 L461.4941 431 L457.4805 431 Q457.7324 433.2676 459.7012 433.2676 Q460.4219 433.2676 461.4707 432.8809 ZM457.5332 430.1328 L460.3398 430.1328 Q460.3398 428.3574 459.0156 428.3574 Q457.6855 428.3574 457.5332 430.1328 ZM463.4922 434 L463.4922 427.6367 L464.6465 427.6367 L464.6465 428.832 Q465.332 427.4961 466.6387 427.4961 Q466.8145 427.4961 467.0078 427.5254 L467.0078 428.6035 Q466.709 428.5039 466.4805 428.5039 Q465.3848 428.5039 464.6465 429.8047 L464.6465 434 ZM472.3809 434 L472.3809 432.8047 Q471.4609 434.1465 470.1484 434.1465 Q469.3164 434.1465 468.8242 433.6221 Q468.332 433.0977 468.332 432.207 L468.332 427.6367 L469.4863 427.6367 L469.4863 431.832 Q469.4863 432.5469 469.6943 432.8486 Q469.9023 433.1504 470.3887 433.1504 Q471.4434 433.1504 472.3809 431.7617 L472.3809 427.6367 L473.5352 427.6367 L473.5352 434 ZM475.8496 434 L475.8496 427.6367 L477.0039 427.6367 L477.0039 428.832 Q477.918 427.4961 479.2422 427.4961 Q480.0684 427.4961 480.5605 428.0205 Q481.0527 428.5449 481.0527 429.4297 L481.0527 434 L479.8984 434 L479.8984 429.8047 Q479.8984 429.0957 479.6904 428.7939 Q479.4824 428.4922 479.002 428.4922 Q477.9414 428.4922 477.0039 429.8809 L477.0039 434 ZM483.3203 436.1152 L483.4551 435.1133 Q484.457 435.5879 485.4297 435.5879 Q487.3809 435.5879 487.3809 433.5195 L487.3809 432.5176 Q486.7422 433.8535 485.2832 433.8535 Q484.1406 433.8535 483.4668 433.0215 Q482.793 432.1895 482.793 430.7773 Q482.793 429.3242 483.5605 428.4102 Q484.3281 427.4961 485.5469 427.4961 Q486.6133 427.4961 487.3809 428.3633 L487.3809 427.6367 L488.541 427.6367 L488.541 432.2656 Q488.541 433.7598 488.3857 434.4775 Q488.2305 435.1953 487.8027 435.6523 Q487.0469 436.4551 485.4531 436.4551 Q484.3398 436.4551 483.3203 436.1152 ZM487.3809 431.7969 L487.3809 429.1543 Q486.6191 428.3633 485.7227 428.3633 Q484.9258 428.3633 484.4746 429.002 Q484.0234 429.6406 484.0234 430.7539 Q484.0234 432.8457 485.4941 432.8457 Q486.4961 432.8457 487.3809 431.7969 ZM492.4668 434.1465 Q491.6758 434.1465 490.5449 433.7773 L490.5449 432.7168 Q491.6758 433.2793 492.5137 433.2793 Q493.0117 433.2793 493.3398 433.0098 Q493.668 432.7402 493.668 432.3359 Q493.668 431.7441 492.748 431.3574 L492.0742 431.0703 Q490.5801 430.4492 490.5801 429.2832 Q490.5801 428.4512 491.1689 427.9736 Q491.7578 427.4961 492.7832 427.4961 Q493.3164 427.4961 494.1016 427.6426 L494.3418 427.6895 L494.3418 428.6504 Q493.375 428.3633 492.8066 428.3633 Q491.6934 428.3633 491.6934 429.1719 Q491.6934 429.6934 492.5371 430.0508 L493.0938 430.2852 Q494.0371 430.6836 494.4297 431.126 Q494.8223 431.5684 494.8223 432.2305 Q494.8223 433.0684 494.1602 433.6074 Q493.498 434.1465 492.4668 434.1465 ZM496.8965 434 L496.8965 424.748 L498.0508 424.748 L498.0508 430.7246 L500.7461 427.6367 L501.9883 427.6367 L499.416 430.6074 L502.5215 434 L501.0449 434 L498.0508 430.7363 L498.0508 434 ZM507.1914 433.1914 Q506.1543 434.1465 505.1934 434.1465 Q504.4023 434.1465 503.8809 433.6514 Q503.3594 433.1562 503.3594 432.4004 Q503.3594 431.3574 504.2354 430.7979 Q505.1113 430.2383 506.7461 430.2383 L507.0215 430.2383 L507.0215 429.4707 Q507.0215 428.3633 505.8848 428.3633 Q504.9707 428.3633 503.9102 428.9258 L503.9102 427.9707 Q505.0762 427.4961 506.0957 427.4961 Q507.1621 427.4961 507.6689 427.9766 Q508.1758 428.457 508.1758 429.4707 L508.1758 432.3535 Q508.1758 433.3438 508.7852 433.3438 Q508.8613 433.3438 509.0078 433.3203 L509.0898 433.959 Q508.6973 434.1465 508.2227 434.1465 Q507.4141 434.1465 507.1914 433.1914 ZM507.0215 432.5645 L507.0215 430.918 L506.6348 430.9062 Q505.6855 430.9062 505.0996 431.2666 Q504.5137 431.627 504.5137 432.2129 Q504.5137 432.6289 504.8066 432.916 Q505.0996 433.2031 505.5215 433.2031 Q506.2422 433.2031 507.0215 432.5645 ZM512.4473 434.1465 Q511.5684 434.1465 511.0762 433.6426 Q510.584 433.1387 510.584 432.2422 L510.584 428.5039 L509.7871 428.5039 L509.7871 427.6367 L510.584 427.6367 L510.584 426.4824 L511.7383 426.3711 L511.7383 427.6367 L513.4023 427.6367 L513.4023 428.5039 L511.7383 428.5039 L511.7383 432.0312 Q511.7383 433.2793 512.8164 433.2793 Q513.0449 433.2793 513.373 433.2031 L513.373 434 Q512.8398 434.1465 512.4473 434.1465 ZM518.3066 433.1914 Q517.2695 434.1465 516.3086 434.1465 Q515.5176 434.1465 514.9961 433.6514 Q514.4746 433.1562 514.4746 432.4004 Q514.4746 431.3574 515.3506 430.7979 Q516.2266 430.2383 517.8613 430.2383 L518.1367 430.2383 L518.1367 429.4707 Q518.1367 428.3633 517 428.3633 Q516.0859 428.3633 515.0254 428.9258 L515.0254 427.9707 Q516.1914 427.4961 517.2109 427.4961 Q518.2773 427.4961 518.7842 427.9766 Q519.291 428.457 519.291 429.4707 L519.291 432.3535 Q519.291 433.3438 519.9004 433.3438 Q519.9766 433.3438 520.123 433.3203 L520.2051 433.959 Q519.8125 434.1465 519.3379 434.1465 Q518.5293 434.1465 518.3066 433.1914 ZM518.1367 432.5645 L518.1367 430.918 L517.75 430.9062 Q516.8008 430.9062 516.2148 431.2666 Q515.6289 431.627 515.6289 432.2129 Q515.6289 432.6289 515.9219 432.916 Q516.2148 433.2031 516.6367 433.2031 Q517.3574 433.2031 518.1367 432.5645 ZM521.6523 434 L521.6523 424.748 L522.8066 424.748 L522.8066 434 ZM527.6113 434.1465 Q526.2461 434.1465 525.4316 433.2412 Q524.6172 432.3359 524.6172 430.8184 Q524.6172 429.2832 525.4346 428.3896 Q526.252 427.4961 527.6523 427.4961 Q529.0527 427.4961 529.8701 428.3896 Q530.6875 429.2832 530.6875 430.8066 Q530.6875 432.3652 529.8672 433.2559 Q529.0469 434.1465 527.6113 434.1465 ZM527.6289 433.2793 Q529.4629 433.2793 529.4629 430.8066 Q529.4629 428.3633 527.6523 428.3633 Q525.8477 428.3633 525.8477 430.8184 Q525.8477 433.2793 527.6289 433.2793 ZM532.5156 436.1152 L532.6504 435.1133 Q533.6523 435.5879 534.625 435.5879 Q536.5762 435.5879 536.5762 433.5195 L536.5762 432.5176 Q535.9375 433.8535 534.4785 433.8535 Q533.3359 433.8535 532.6621 433.0215 Q531.9883 432.1895 531.9883 430.7773 Q531.9883 429.3242 532.7559 428.4102 Q533.5234 427.4961 534.7422 427.4961 Q535.8086 427.4961 536.5762 428.3633 L536.5762 427.6367 L537.7363 427.6367 L537.7363 432.2656 Q537.7363 433.7598 537.5811 434.4775 Q537.4258 435.1953 536.998 435.6523 Q536.2422 436.4551 534.6484 436.4551 Q533.5352 436.4551 532.5156 436.1152 ZM536.5762 431.7969 L536.5762 429.1543 Q535.8145 428.3633 534.918 428.3633 Q534.1211 428.3633 533.6699 429.002 Q533.2188 429.6406 533.2188 430.7539 Q533.2188 432.8457 534.6895 432.8457 Q535.6914 432.8457 536.5762 431.7969 Z"
                  clip-path="url(#clipPath16)" stroke="none"/>
        </g>
        <g text-rendering="optimizeLegibility" font-size="13px"
           stroke-dasharray="2" font-family="'.AppleSystemUIFont'"
           stroke-linecap="butt">
            <path fill="none" d="M658 199 L574 142" clip-path="url(#clipPath17)"/>
            <path fill="none" stroke-dasharray="none"
                  d="M651 198 L658 199 L654 193" clip-path="url(#clipPath18)"/>
            <path fill="none" stroke-dasharray="none" d="M559 313 L658 253"
                  clip-path="url(#clipPath19)"/>
            <polygon stroke-dasharray="none" clip-path="url(#clipPath20)"
                     points=" 658 253 654 259 650 254" stroke="none"/>
            <polygon fill="none" stroke-dasharray="none"
                     clip-path="url(#clipPath20)"
                     points=" 658 253 654 259 650 254"/>
            <path fill="none" d="M454 310 L454 253" clip-path="url(#clipPath21)"/>
            <path fill="none" stroke-dasharray="none"
                  d="M457 260 L454 253 L451 260" clip-path="url(#clipPath22)"/>
            <path fill="none" stroke-dasharray="none" d="M454 142 L454 199"
                  clip-path="url(#clipPath23)"/>
            <path fill="none" d="M274 202 L334 142" clip-path="url(#clipPath24)"/>
            <path fill="none" stroke-dasharray="none"
                  d="M277 195 L274 202 L281 199" clip-path="url(#clipPath25)"/>
            <path fill="none" stroke-dasharray="none" d="M274 250 L349 313"
                  clip-path="url(#clipPath26)"/>
            <polygon stroke-dasharray="none" clip-path="url(#clipPath27)"
                     points=" 349 313 342 311 346 306" stroke="none"/>
            <polygon fill="none" stroke-dasharray="none"
                     clip-path="url(#clipPath27)"
                     points=" 349 313 342 311 346 306"/>
            <path fill="none" d="M454 364 L454 418" clip-path="url(#clipPath28)"/>
            <path fill="none" stroke-dasharray="none"
                  d="M457 371 L454 364 L451 371" clip-path="url(#clipPath29)"/>
            <path fill="none" stroke-dasharray="none" d="M454 466 L454 526"
                  clip-path="url(#clipPath30)"/>
            <path stroke-dasharray="none"
                  d="M454 466 L460 476 L454 486 L448 476 ZM454 466"
                  clip-path="url(#clipPath31)" fill-rule="evenodd" stroke="none"/>
            <path fill="none" stroke-dasharray="none"
                  d="M454 466 L460 476 L454 486 L448 476 ZM454 466"
                  clip-path="url(#clipPath31)" fill-rule="evenodd"/>
        </g>
    </g>
</svg>
