<?xml version="1.0"?>


<svg fill-opacity="1" xmlns:xlink="http://www.w3.org/1999/xlink"
     color-rendering="auto" color-interpolation="auto" text-rendering="auto"
     stroke="black" stroke-linecap="square" width="496" stroke-miterlimit="10"
     shape-rendering="auto" stroke-opacity="1" fill="black"
     stroke-dasharray="none" font-weight="normal" stroke-width="1"
     viewBox="0 0 496 297" height="297" xmlns="http://www.w3.org/2000/svg"
     font-family="'Dialog'" font-style="normal" stroke-linejoin="miter"
     font-size="12px" stroke-dashoffset="0" image-rendering="auto">
    <!--Generated by Archi with Batik SVG Generator-->
    <defs id="genericDefs"/>
    <g>
        <defs id="defs1">
            <clipPath clipPathUnits="userSpaceOnUse" id="clipPath1">
                <path d="M173 9 L295 9 L295 66 L173 66 L173 9 Z"/>
            </clipPath>
            <clipPath clipPathUnits="userSpaceOnUse" id="clipPath2">
                <path d="M197 13 L270 13 L270 30 L197 30 L197 13 Z"/>
            </clipPath>
            <clipPath clipPathUnits="userSpaceOnUse" id="clipPath3">
                <path d="M9 117 L131 117 L131 174 L9 174 L9 117 Z"/>
            </clipPath>
            <clipPath clipPathUnits="userSpaceOnUse" id="clipPath4">
                <path d="M29 121 L110 121 L110 138 L29 138 L29 121 Z"/>
            </clipPath>
            <clipPath clipPathUnits="userSpaceOnUse" id="clipPath5">
                <path d="M9 9 L131 9 L131 66 L9 66 L9 9 Z"/>
            </clipPath>
            <clipPath clipPathUnits="userSpaceOnUse" id="clipPath6">
                <path d="M31 13 L109 13 L109 30 L31 30 L31 13 Z"/>
            </clipPath>
            <clipPath clipPathUnits="userSpaceOnUse" id="clipPath7">
                <path d="M9 231 L479 231 L479 288 L9 288 L9 231 Z"/>
            </clipPath>
            <clipPath clipPathUnits="userSpaceOnUse" id="clipPath8">
                <path d="M183 235 L304 235 L304 252 L183 252 L183 235 Z"/>
            </clipPath>
            <clipPath clipPathUnits="userSpaceOnUse" id="clipPath9">
                <path d="M173 117 L295 117 L295 174 L173 174 L173 117 Z"/>
            </clipPath>
            <clipPath clipPathUnits="userSpaceOnUse" id="clipPath10">
                <path d="M194 121 L274 121 L274 153 L194 153 L194 121 Z"/>
            </clipPath>
            <clipPath clipPathUnits="userSpaceOnUse" id="clipPath11">
                <path d="M340 117 L462 117 L462 174 L340 174 L340 117 Z"/>
            </clipPath>
            <clipPath clipPathUnits="userSpaceOnUse" id="clipPath12">
                <path d="M360 121 L441 121 L441 138 L360 138 L360 121 Z"/>
            </clipPath>
            <clipPath clipPathUnits="userSpaceOnUse" id="clipPath13">
                <path d="M340 9 L487 9 L487 82 L340 82 L340 9 Z"/>
            </clipPath>
            <clipPath clipPathUnits="userSpaceOnUse" id="clipPath14">
                <path d="M394 13 L433 13 L433 30 L394 30 L394 13 Z"/>
            </clipPath>
        </defs>
        <g fill="rgb(255,255,181)" text-rendering="optimizeLegibility"
           font-family="'Lucida Grande'" stroke-linejoin="round"
           stroke="rgb(255,255,181)" stroke-width="0" stroke-miterlimit="0">
            <rect x="174" width="119" height="54" y="10"
                  clip-path="url(#clipPath1)" stroke="none"/>
        </g>
        <g fill="rgb(178,178,126)" text-rendering="optimizeLegibility"
           font-family="'Lucida Grande'" stroke-linecap="butt"
           stroke="rgb(178,178,126)">
            <rect fill="none" x="174" width="119" height="54" y="10"
                  clip-path="url(#clipPath1)"/>
            <rect x="276" y="16" clip-path="url(#clipPath1)" fill="none"
                  width="13" height="10" stroke="black"/>
            <line clip-path="url(#clipPath1)" fill="none" x1="276" x2="289"
                  y1="19" y2="19" stroke="black"/>
            <path fill="black"
                  d="M199.1191 26 L199.1191 17.3281 L201.3691 17.3281 Q202.6699 17.3281 203.3643 17.8203 Q204.0586 18.3125 204.0586 19.2383 Q204.0586 20.8145 202.2773 21.4824 Q204.4043 22.1328 204.4043 23.832 Q204.4043 24.8867 203.7012 25.4434 Q202.998 26 201.6738 26 ZM200.3379 25.0801 L200.5898 25.0801 Q201.9434 25.0801 202.3418 24.9102 Q203.1035 24.5879 203.1035 23.7148 Q203.1035 22.9414 202.4121 22.4287 Q201.7207 21.916 200.6836 21.916 L200.3379 21.916 ZM200.3379 21.1367 L200.7305 21.1367 Q201.7148 21.1367 202.2568 20.7148 Q202.7988 20.293 202.7988 19.5254 Q202.7988 18.248 200.8184 18.248 L200.3379 18.248 ZM210.7207 25.7949 Q209.5605 26.1465 208.7344 26.1465 Q207.3281 26.1465 206.4404 25.2119 Q205.5527 24.2773 205.5527 22.7891 Q205.5527 21.3418 206.335 20.416 Q207.1172 19.4902 208.3359 19.4902 Q209.4902 19.4902 210.1201 20.3105 Q210.75 21.1309 210.75 22.6426 L210.7441 23 L206.7305 23 Q206.9824 25.2676 208.9512 25.2676 Q209.6719 25.2676 210.7207 24.8809 ZM206.7832 22.1328 L209.5898 22.1328 Q209.5898 20.3574 208.2656 20.3574 Q206.9355 20.3574 206.7832 22.1328 ZM213.4805 26 L211.6582 19.6367 L212.7891 19.6367 L214.1836 24.5645 L215.6895 19.6367 L216.8438 19.6367 L218.1621 24.5645 L219.7617 19.6367 L220.752 19.6367 L218.6777 26 L217.5176 26 L216.1699 21.0723 L214.6465 26 ZM221.9883 26 L221.9883 19.6367 L223.1426 19.6367 L223.1426 26 ZM221.9883 18.4824 L221.9883 17.3281 L223.1426 17.3281 L223.1426 18.4824 ZM225.457 26 L225.457 16.748 L226.6113 16.748 L226.6113 26 ZM228.9258 26 L228.9258 16.748 L230.0801 16.748 L230.0801 26 ZM232.3945 26 L232.3945 19.6367 L233.5488 19.6367 L233.5488 26 ZM232.3945 18.4824 L232.3945 17.3281 L233.5488 17.3281 L233.5488 18.4824 ZM235.8867 28.1152 L236.0215 27.1133 Q237.0234 27.5879 237.9961 27.5879 Q239.9473 27.5879 239.9473 25.5195 L239.9473 24.5176 Q239.3086 25.8535 237.8496 25.8535 Q236.707 25.8535 236.0332 25.0215 Q235.3594 24.1895 235.3594 22.7773 Q235.3594 21.3242 236.127 20.4102 Q236.8945 19.4961 238.1133 19.4961 Q239.1797 19.4961 239.9473 20.3633 L239.9473 19.6367 L241.1074 19.6367 L241.1074 24.2656 Q241.1074 25.7598 240.9521 26.4775 Q240.7969 27.1953 240.3691 27.6523 Q239.6133 28.4551 238.0195 28.4551 Q236.9062 28.4551 235.8867 28.1152 ZM239.9473 23.7969 L239.9473 21.1543 Q239.1855 20.3633 238.2891 20.3633 Q237.4922 20.3633 237.041 21.002 Q236.5898 21.6406 236.5898 22.7539 Q236.5898 24.8457 238.0605 24.8457 Q239.0625 24.8457 239.9473 23.7969 ZM247.3242 26 L247.3242 24.8047 Q246.4043 26.1465 245.0918 26.1465 Q244.2598 26.1465 243.7676 25.6221 Q243.2754 25.0977 243.2754 24.207 L243.2754 19.6367 L244.4297 19.6367 L244.4297 23.832 Q244.4297 24.5469 244.6377 24.8486 Q244.8457 25.1504 245.332 25.1504 Q246.3867 25.1504 247.3242 23.7617 L247.3242 19.6367 L248.4785 19.6367 L248.4785 26 ZM250.793 26 L250.793 19.6367 L251.9473 19.6367 L251.9473 20.832 Q252.8613 19.4961 254.1855 19.4961 Q255.0117 19.4961 255.5039 20.0205 Q255.9961 20.5449 255.9961 21.4297 L255.9961 26 L254.8418 26 L254.8418 21.8047 Q254.8418 21.0957 254.6338 20.7939 Q254.4258 20.4922 253.9453 20.4922 Q252.8848 20.4922 251.9473 21.8809 L251.9473 26 ZM258.2637 28.1152 L258.3984 27.1133 Q259.4004 27.5879 260.373 27.5879 Q262.3242 27.5879 262.3242 25.5195 L262.3242 24.5176 Q261.6855 25.8535 260.2266 25.8535 Q259.084 25.8535 258.4102 25.0215 Q257.7363 24.1895 257.7363 22.7773 Q257.7363 21.3242 258.5039 20.4102 Q259.2715 19.4961 260.4902 19.4961 Q261.5566 19.4961 262.3242 20.3633 L262.3242 19.6367 L263.4844 19.6367 L263.4844 24.2656 Q263.4844 25.7598 263.3291 26.4775 Q263.1738 27.1953 262.7461 27.6523 Q261.9902 28.4551 260.3965 28.4551 Q259.2832 28.4551 258.2637 28.1152 ZM262.3242 23.7969 L262.3242 21.1543 Q261.5625 20.3633 260.666 20.3633 Q259.8691 20.3633 259.418 21.002 Q258.9668 21.6406 258.9668 22.7539 Q258.9668 24.8457 260.4375 24.8457 Q261.4395 24.8457 262.3242 23.7969 Z"
                  clip-path="url(#clipPath2)" stroke="none"/>
            <rect x="10" y="118" clip-path="url(#clipPath3)"
                  fill="rgb(255,255,181)" width="119" height="54" stroke="none"/>
            <rect fill="none" x="10" width="119" height="54" y="118"
                  clip-path="url(#clipPath3)"/>
            <rect x="112" y="124" clip-path="url(#clipPath3)" fill="none"
                  width="13" height="10" stroke="black"/>
            <line clip-path="url(#clipPath3)" fill="none" x1="112" x2="125"
                  y1="127" y2="127" stroke="black"/>
            <path fill="black"
                  d="M31.1191 134 L31.1191 125.3281 L32.2734 125.3281 L32.2734 129.5938 L35.7832 125.3281 L37.0195 125.3281 L33.6211 129.4648 L37.623 134 L36.0645 134 L32.2734 129.6055 L32.2734 134 ZM42.9668 134 L42.9668 132.8047 Q42.0469 134.1465 40.7344 134.1465 Q39.9023 134.1465 39.4102 133.6221 Q38.918 133.0977 38.918 132.207 L38.918 127.6367 L40.0723 127.6367 L40.0723 131.832 Q40.0723 132.5469 40.2803 132.8486 Q40.4883 133.1504 40.9746 133.1504 Q42.0293 133.1504 42.9668 131.7617 L42.9668 127.6367 L44.1211 127.6367 L44.1211 134 ZM46.4355 134 L46.4355 127.6367 L47.5898 127.6367 L47.5898 128.832 Q48.5039 127.4961 49.8281 127.4961 Q50.6543 127.4961 51.1465 128.0205 Q51.6387 128.5449 51.6387 129.4297 L51.6387 134 L50.4844 134 L50.4844 129.8047 Q50.4844 129.0957 50.2764 128.7939 Q50.0684 128.4922 49.5879 128.4922 Q48.5273 128.4922 47.5898 129.8809 L47.5898 134 ZM57.9668 134 L57.9668 132.8047 Q57.2637 134.1465 55.8457 134.1465 Q54.6973 134.1465 54.0381 133.3086 Q53.3789 132.4707 53.3789 131.0176 Q53.3789 129.4297 54.126 128.4629 Q54.873 127.4961 56.0918 127.4961 Q57.2227 127.4961 57.9668 128.3633 L57.9668 124.748 L59.127 124.748 L59.127 134 ZM57.9668 129.1543 Q57.0703 128.3633 56.2676 128.3633 Q54.6094 128.3633 54.6094 130.9004 Q54.6094 133.1328 56.0859 133.1328 Q57.0469 133.1328 57.9668 132.084 ZM66.0996 133.7949 Q64.9395 134.1465 64.1133 134.1465 Q62.707 134.1465 61.8193 133.2119 Q60.9316 132.2773 60.9316 130.7891 Q60.9316 129.3418 61.7139 128.416 Q62.4961 127.4902 63.7148 127.4902 Q64.8691 127.4902 65.499 128.3105 Q66.1289 129.1309 66.1289 130.6426 L66.123 131 L62.1094 131 Q62.3613 133.2676 64.3301 133.2676 Q65.0508 133.2676 66.0996 132.8809 ZM62.1621 130.1328 L64.9688 130.1328 Q64.9688 128.3574 63.6445 128.3574 Q62.3145 128.3574 62.1621 130.1328 ZM68.1211 134 L68.1211 127.6367 L69.2754 127.6367 L69.2754 128.832 Q70.1895 127.4961 71.5137 127.4961 Q72.3398 127.4961 72.832 128.0205 Q73.3242 128.5449 73.3242 129.4297 L73.3242 134 L72.1699 134 L72.1699 129.8047 Q72.1699 129.0957 71.9619 128.7939 Q71.7539 128.4922 71.2734 128.4922 Q70.2129 128.4922 69.2754 129.8809 L69.2754 134 ZM75.5684 134 L75.5684 124.748 L76.7227 124.748 L76.7227 130.7246 L79.418 127.6367 L80.6602 127.6367 L78.0879 130.6074 L81.1934 134 L79.7168 134 L76.7227 130.7363 L76.7227 134 ZM85.0723 134.1465 Q83.707 134.1465 82.8926 133.2412 Q82.0781 132.3359 82.0781 130.8184 Q82.0781 129.2832 82.8955 128.3896 Q83.7129 127.4961 85.1133 127.4961 Q86.5137 127.4961 87.3311 128.3896 Q88.1484 129.2832 88.1484 130.8066 Q88.1484 132.3652 87.3281 133.2559 Q86.5078 134.1465 85.0723 134.1465 ZM85.0898 133.2793 Q86.9238 133.2793 86.9238 130.8066 Q86.9238 128.3633 85.1133 128.3633 Q83.3086 128.3633 83.3086 130.8184 Q83.3086 133.2793 85.0898 133.2793 ZM89.9531 134 L89.9531 127.6367 L91.1074 127.6367 L91.1074 128.832 Q92.0215 127.4961 93.3457 127.4961 Q94.1719 127.4961 94.6641 128.0205 Q95.1562 128.5449 95.1562 129.4297 L95.1562 134 L94.002 134 L94.002 129.8047 Q94.002 129.0957 93.7939 128.7939 Q93.5859 128.4922 93.1055 128.4922 Q92.0449 128.4922 91.1074 129.8809 L91.1074 134 ZM99.3105 134.1465 Q98.4316 134.1465 97.9395 133.6426 Q97.4473 133.1387 97.4473 132.2422 L97.4473 128.5039 L96.6504 128.5039 L96.6504 127.6367 L97.4473 127.6367 L97.4473 126.4824 L98.6016 126.3711 L98.6016 127.6367 L100.2656 127.6367 L100.2656 128.5039 L98.6016 128.5039 L98.6016 132.0312 Q98.6016 133.2793 99.6797 133.2793 Q99.9082 133.2793 100.2363 133.2031 L100.2363 134 Q99.7031 134.1465 99.3105 134.1465 ZM104.3789 134.1465 Q103.0137 134.1465 102.1992 133.2412 Q101.3848 132.3359 101.3848 130.8184 Q101.3848 129.2832 102.2021 128.3896 Q103.0195 127.4961 104.4199 127.4961 Q105.8203 127.4961 106.6377 128.3896 Q107.4551 129.2832 107.4551 130.8066 Q107.4551 132.3652 106.6348 133.2559 Q105.8145 134.1465 104.3789 134.1465 ZM104.3965 133.2793 Q106.2305 133.2793 106.2305 130.8066 Q106.2305 128.3633 104.4199 128.3633 Q102.6152 128.3633 102.6152 130.8184 Q102.6152 133.2793 104.3965 133.2793 Z"
                  clip-path="url(#clipPath4)" stroke="none"/>
            <rect x="10" y="10" clip-path="url(#clipPath5)"
                  fill="rgb(255,255,181)" width="119" height="54" stroke="none"/>
            <rect fill="none" x="10" width="119" height="54" y="10"
                  clip-path="url(#clipPath5)"/>
            <rect x="112" y="16" clip-path="url(#clipPath5)" fill="none"
                  width="13" height="10" stroke="black"/>
            <line clip-path="url(#clipPath5)" fill="none" x1="112" x2="125"
                  y1="19" y2="19" stroke="black"/>
            <path fill="black"
                  d="M33.1191 26 L33.1191 17.3281 L37.9648 17.3281 L37.9648 18.248 L34.3496 18.248 L34.3496 21.1543 L37.3848 21.1543 L37.3848 22.0625 L34.3496 22.0625 L34.3496 26 ZM39.5879 26 L39.5879 19.6367 L40.7422 19.6367 L40.7422 26 ZM39.5879 18.4824 L39.5879 17.3281 L40.7422 17.3281 L40.7422 18.4824 ZM43.0566 26 L43.0566 19.6367 L44.2109 19.6367 L44.2109 20.832 Q45.125 19.4961 46.4492 19.4961 Q47.2754 19.4961 47.7676 20.0205 Q48.2598 20.5449 48.2598 21.4297 L48.2598 26 L47.1055 26 L47.1055 21.8047 Q47.1055 21.0957 46.8975 20.7939 Q46.6895 20.4922 46.209 20.4922 Q45.1484 20.4922 44.2109 21.8809 L44.2109 26 ZM53.7852 25.1914 Q52.748 26.1465 51.7871 26.1465 Q50.9961 26.1465 50.4746 25.6514 Q49.9531 25.1562 49.9531 24.4004 Q49.9531 23.3574 50.8291 22.7979 Q51.7051 22.2383 53.3398 22.2383 L53.6152 22.2383 L53.6152 21.4707 Q53.6152 20.3633 52.4785 20.3633 Q51.5645 20.3633 50.5039 20.9258 L50.5039 19.9707 Q51.6699 19.4961 52.6895 19.4961 Q53.7559 19.4961 54.2627 19.9766 Q54.7695 20.457 54.7695 21.4707 L54.7695 24.3535 Q54.7695 25.3438 55.3789 25.3438 Q55.4551 25.3438 55.6016 25.3203 L55.6836 25.959 Q55.291 26.1465 54.8164 26.1465 Q54.0078 26.1465 53.7852 25.1914 ZM53.6152 24.5645 L53.6152 22.918 L53.2285 22.9062 Q52.2793 22.9062 51.6934 23.2666 Q51.1074 23.627 51.1074 24.2129 Q51.1074 24.6289 51.4004 24.916 Q51.6934 25.2031 52.1152 25.2031 Q52.8359 25.2031 53.6152 24.5645 ZM57.1309 26 L57.1309 19.6367 L58.2852 19.6367 L58.2852 20.832 Q59.1992 19.4961 60.5234 19.4961 Q61.3496 19.4961 61.8418 20.0205 Q62.334 20.5449 62.334 21.4297 L62.334 26 L61.1797 26 L61.1797 21.8047 Q61.1797 21.0957 60.9717 20.7939 Q60.7637 20.4922 60.2832 20.4922 Q59.2227 20.4922 58.2852 21.8809 L58.2852 26 ZM64.1445 26 L64.1445 25.1328 L68.082 20.5039 L64.3262 20.5039 L64.3262 19.6367 L69.5059 19.6367 L69.5059 20.5039 L65.5684 25.1328 L69.582 25.1328 L69.582 26 ZM71.457 26 L71.457 19.6367 L72.6113 19.6367 L72.6113 26 ZM71.457 18.4824 L71.457 17.3281 L72.6113 17.3281 L72.6113 18.4824 ZM79.5898 25.7949 Q78.4297 26.1465 77.6035 26.1465 Q76.1973 26.1465 75.3096 25.2119 Q74.4219 24.2773 74.4219 22.7891 Q74.4219 21.3418 75.2041 20.416 Q75.9863 19.4902 77.2051 19.4902 Q78.3594 19.4902 78.9893 20.3105 Q79.6191 21.1309 79.6191 22.6426 L79.6133 23 L75.5996 23 Q75.8516 25.2676 77.8203 25.2676 Q78.541 25.2676 79.5898 24.8809 ZM75.6523 22.1328 L78.459 22.1328 Q78.459 20.3574 77.1348 20.3574 Q75.8047 20.3574 75.6523 22.1328 ZM81.6113 26 L81.6113 19.6367 L82.7656 19.6367 L82.7656 20.832 Q83.4512 19.4961 84.7578 19.4961 Q84.9336 19.4961 85.127 19.5254 L85.127 20.6035 Q84.8281 20.5039 84.5996 20.5039 Q83.5039 20.5039 82.7656 21.8047 L82.7656 26 ZM90.5 26 L90.5 24.8047 Q89.5801 26.1465 88.2676 26.1465 Q87.4355 26.1465 86.9434 25.6221 Q86.4512 25.0977 86.4512 24.207 L86.4512 19.6367 L87.6055 19.6367 L87.6055 23.832 Q87.6055 24.5469 87.8135 24.8486 Q88.0215 25.1504 88.5078 25.1504 Q89.5625 25.1504 90.5 23.7617 L90.5 19.6367 L91.6543 19.6367 L91.6543 26 ZM93.9688 26 L93.9688 19.6367 L95.123 19.6367 L95.123 20.832 Q96.0371 19.4961 97.3613 19.4961 Q98.1875 19.4961 98.6797 20.0205 Q99.1719 20.5449 99.1719 21.4297 L99.1719 26 L98.0176 26 L98.0176 21.8047 Q98.0176 21.0957 97.8096 20.7939 Q97.6016 20.4922 97.1211 20.4922 Q96.0605 20.4922 95.123 21.8809 L95.123 26 ZM101.4395 28.1152 L101.5742 27.1133 Q102.5762 27.5879 103.5488 27.5879 Q105.5 27.5879 105.5 25.5195 L105.5 24.5176 Q104.8613 25.8535 103.4023 25.8535 Q102.2598 25.8535 101.5859 25.0215 Q100.9121 24.1895 100.9121 22.7773 Q100.9121 21.3242 101.6797 20.4102 Q102.4473 19.4961 103.666 19.4961 Q104.7324 19.4961 105.5 20.3633 L105.5 19.6367 L106.6602 19.6367 L106.6602 24.2656 Q106.6602 25.7598 106.5049 26.4775 Q106.3496 27.1953 105.9219 27.6523 Q105.166 28.4551 103.5723 28.4551 Q102.459 28.4551 101.4395 28.1152 ZM105.5 23.7969 L105.5 21.1543 Q104.7383 20.3633 103.8418 20.3633 Q103.0449 20.3633 102.5938 21.002 Q102.1426 21.6406 102.1426 22.7539 Q102.1426 24.8457 103.6133 24.8457 Q104.6152 24.8457 105.5 23.7969 Z"
                  clip-path="url(#clipPath6)" stroke="none"/>
            <rect x="10" y="232" clip-path="url(#clipPath7)"
                  fill="rgb(255,255,181)" width="467" height="54" stroke="none"/>
            <rect fill="none" x="10" width="467" height="54" y="232"
                  clip-path="url(#clipPath7)"/>
            <rect x="460" y="238" clip-path="url(#clipPath7)" fill="none"
                  width="13" height="10" stroke="black"/>
            <line clip-path="url(#clipPath7)" fill="none" x1="460" x2="473"
                  y1="241" y2="241" stroke="black"/>
            <path fill="black"
                  d="M191.6348 247.7656 Q190.0586 248.2168 188.8867 248.2168 Q186.8184 248.2168 185.7139 247.0391 Q184.6094 245.8613 184.6094 243.6641 Q184.6094 241.5078 185.7285 240.3096 Q186.8477 239.1113 188.8691 239.1113 Q190.1934 239.1113 191.623 239.5039 L191.623 240.6406 Q189.8301 240.0312 188.875 240.0312 Q187.4688 240.0312 186.6924 240.9863 Q185.916 241.9414 185.916 243.6758 Q185.916 245.3926 186.748 246.3447 Q187.5801 247.2969 189.0801 247.2969 Q189.6953 247.2969 190.4102 247.0801 L190.4102 244.2559 L191.6348 244.2559 ZM193.8262 248 L193.8262 241.6367 L194.9805 241.6367 L194.9805 242.832 Q195.666 241.4961 196.9727 241.4961 Q197.1484 241.4961 197.3418 241.5254 L197.3418 242.6035 Q197.043 242.5039 196.8145 242.5039 Q195.7188 242.5039 194.9805 243.8047 L194.9805 248 ZM202.7148 248 L202.7148 246.8047 Q201.7949 248.1465 200.4824 248.1465 Q199.6504 248.1465 199.1582 247.6221 Q198.666 247.0977 198.666 246.207 L198.666 241.6367 L199.8203 241.6367 L199.8203 245.832 Q199.8203 246.5469 200.0283 246.8486 Q200.2363 247.1504 200.7227 247.1504 Q201.7773 247.1504 202.7148 245.7617 L202.7148 241.6367 L203.8691 241.6367 L203.8691 248 ZM199.6035 240.4824 L199.6035 239.4688 L200.6172 239.4688 L200.6172 240.4824 ZM201.918 240.4824 L201.918 239.4688 L202.9316 239.4688 L202.9316 240.4824 ZM206.1836 248 L206.1836 241.6367 L207.3379 241.6367 L207.3379 242.832 Q208.252 241.4961 209.5762 241.4961 Q210.4023 241.4961 210.8945 242.0205 Q211.3867 242.5449 211.3867 243.4297 L211.3867 248 L210.2324 248 L210.2324 243.8047 Q210.2324 243.0957 210.0244 242.7939 Q209.8164 242.4922 209.3359 242.4922 Q208.2754 242.4922 207.3379 243.8809 L207.3379 248 ZM217.7148 248 L217.7148 246.8047 Q217.0117 248.1465 215.5938 248.1465 Q214.4453 248.1465 213.7861 247.3086 Q213.127 246.4707 213.127 245.0176 Q213.127 243.4297 213.874 242.4629 Q214.6211 241.4961 215.8398 241.4961 Q216.9707 241.4961 217.7148 242.3633 L217.7148 238.748 L218.875 238.748 L218.875 248 ZM217.7148 243.1543 Q216.8184 242.3633 216.0156 242.3633 Q214.3574 242.3633 214.3574 244.9004 Q214.3574 247.1328 215.834 247.1328 Q216.7949 247.1328 217.7148 246.084 ZM225.1621 248 L225.1621 246.8047 Q224.2422 248.1465 222.9297 248.1465 Q222.0977 248.1465 221.6055 247.6221 Q221.1133 247.0977 221.1133 246.207 L221.1133 241.6367 L222.2676 241.6367 L222.2676 245.832 Q222.2676 246.5469 222.4756 246.8486 Q222.6836 247.1504 223.1699 247.1504 Q224.2246 247.1504 225.1621 245.7617 L225.1621 241.6367 L226.3164 241.6367 L226.3164 248 ZM228.6309 248 L228.6309 241.6367 L229.7852 241.6367 L229.7852 242.832 Q230.6992 241.4961 232.0234 241.4961 Q232.8496 241.4961 233.3418 242.0205 Q233.834 242.5449 233.834 243.4297 L233.834 248 L232.6797 248 L232.6797 243.8047 Q232.6797 243.0957 232.4717 242.7939 Q232.2637 242.4922 231.7832 242.4922 Q230.7227 242.4922 229.7852 243.8809 L229.7852 248 ZM236.1016 250.1152 L236.2363 249.1133 Q237.2383 249.5879 238.2109 249.5879 Q240.1621 249.5879 240.1621 247.5195 L240.1621 246.5176 Q239.5234 247.8535 238.0645 247.8535 Q236.9219 247.8535 236.248 247.0215 Q235.5742 246.1895 235.5742 244.7773 Q235.5742 243.3242 236.3418 242.4102 Q237.1094 241.4961 238.3281 241.4961 Q239.3945 241.4961 240.1621 242.3633 L240.1621 241.6367 L241.3223 241.6367 L241.3223 246.2656 Q241.3223 247.7598 241.167 248.4775 Q241.0117 249.1953 240.584 249.6523 Q239.8281 250.4551 238.2344 250.4551 Q237.1211 250.4551 236.1016 250.1152 ZM240.1621 245.7969 L240.1621 243.1543 Q239.4004 242.3633 238.5039 242.3633 Q237.707 242.3633 237.2559 243.002 Q236.8047 243.6406 236.8047 244.7539 Q236.8047 246.8457 238.2754 246.8457 Q239.2773 246.8457 240.1621 245.7969 ZM245.248 248.1465 Q244.457 248.1465 243.3262 247.7773 L243.3262 246.7168 Q244.457 247.2793 245.2949 247.2793 Q245.793 247.2793 246.1211 247.0098 Q246.4492 246.7402 246.4492 246.3359 Q246.4492 245.7441 245.5293 245.3574 L244.8555 245.0703 Q243.3613 244.4492 243.3613 243.2832 Q243.3613 242.4512 243.9502 241.9736 Q244.5391 241.4961 245.5645 241.4961 Q246.0977 241.4961 246.8828 241.6426 L247.123 241.6895 L247.123 242.6504 Q246.1562 242.3633 245.5879 242.3633 Q244.4746 242.3633 244.4746 243.1719 Q244.4746 243.6934 245.3184 244.0508 L245.875 244.2852 Q246.8184 244.6836 247.2109 245.126 Q247.6035 245.5684 247.6035 246.2305 Q247.6035 247.0684 246.9414 247.6074 Q246.2793 248.1465 245.248 248.1465 ZM250.9961 248 L248.6289 241.6367 L249.7832 241.6367 L251.6348 246.5879 L253.5859 241.6367 L254.6641 241.6367 L252.1504 248 ZM258.3789 248.1465 Q257.0137 248.1465 256.1992 247.2412 Q255.3848 246.3359 255.3848 244.8184 Q255.3848 243.2832 256.2021 242.3896 Q257.0195 241.4961 258.4199 241.4961 Q259.8203 241.4961 260.6377 242.3896 Q261.4551 243.2832 261.4551 244.8066 Q261.4551 246.3652 260.6348 247.2559 Q259.8145 248.1465 258.3789 248.1465 ZM258.3965 247.2793 Q260.2305 247.2793 260.2305 244.8066 Q260.2305 242.3633 258.4199 242.3633 Q256.6152 242.3633 256.6152 244.8184 Q256.6152 247.2793 258.3965 247.2793 ZM263.2598 248 L263.2598 241.6367 L264.4141 241.6367 L264.4141 242.832 Q265.0996 241.4961 266.4062 241.4961 Q266.582 241.4961 266.7754 241.5254 L266.7754 242.6035 Q266.4766 242.5039 266.248 242.5039 Q265.1523 242.5039 264.4141 243.8047 L264.4141 248 ZM268.1699 248 L268.1699 238.748 L269.3242 238.748 L269.3242 242.832 Q270.2383 241.4961 271.5625 241.4961 Q272.3887 241.4961 272.8809 242.0205 Q273.373 242.5449 273.373 243.4297 L273.373 248 L272.2188 248 L272.2188 243.8047 Q272.2188 243.0957 272.0107 242.7939 Q271.8027 242.4922 271.3223 242.4922 Q270.2617 242.4922 269.3242 243.8809 L269.3242 248 ZM278.8984 247.1914 Q277.8613 248.1465 276.9004 248.1465 Q276.1094 248.1465 275.5879 247.6514 Q275.0664 247.1562 275.0664 246.4004 Q275.0664 245.3574 275.9424 244.7979 Q276.8184 244.2383 278.4531 244.2383 L278.7285 244.2383 L278.7285 243.4707 Q278.7285 242.3633 277.5918 242.3633 Q276.6777 242.3633 275.6172 242.9258 L275.6172 241.9707 Q276.7832 241.4961 277.8027 241.4961 Q278.8691 241.4961 279.376 241.9766 Q279.8828 242.457 279.8828 243.4707 L279.8828 246.3535 Q279.8828 247.3438 280.4922 247.3438 Q280.5684 247.3438 280.7148 247.3203 L280.7969 247.959 Q280.4043 248.1465 279.9297 248.1465 Q279.1211 248.1465 278.8984 247.1914 ZM278.7285 246.5645 L278.7285 244.918 L278.3418 244.9062 Q277.3926 244.9062 276.8066 245.2666 Q276.2207 245.627 276.2207 246.2129 Q276.2207 246.6289 276.5137 246.916 Q276.8066 247.2031 277.2285 247.2031 Q277.9492 247.2031 278.7285 246.5645 ZM282.2441 248.0703 L282.2441 238.748 L283.3984 238.748 L283.3984 242.832 Q284.1074 241.4961 285.5254 241.4961 Q286.6738 241.4961 287.333 242.334 Q287.9922 243.1719 287.9922 244.625 Q287.9922 246.207 287.2451 247.1768 Q286.498 248.1465 285.2793 248.1465 Q284.1484 248.1465 283.3984 247.2793 L283.2578 248.0703 ZM283.3984 246.4824 Q284.2891 247.2793 285.0977 247.2793 Q286.7617 247.2793 286.7617 244.7422 Q286.7617 242.5039 285.2852 242.5039 Q284.3184 242.5039 283.3984 243.5527 ZM294.4609 247.7949 Q293.3008 248.1465 292.4746 248.1465 Q291.0684 248.1465 290.1807 247.2119 Q289.293 246.2773 289.293 244.7891 Q289.293 243.3418 290.0752 242.416 Q290.8574 241.4902 292.0762 241.4902 Q293.2305 241.4902 293.8604 242.3105 Q294.4902 243.1309 294.4902 244.6426 L294.4844 245 L290.4707 245 Q290.7227 247.2676 292.6914 247.2676 Q293.4121 247.2676 294.4609 246.8809 ZM290.5234 244.1328 L293.3301 244.1328 Q293.3301 242.3574 292.0059 242.3574 Q290.6758 242.3574 290.5234 244.1328 ZM296.4824 248 L296.4824 241.6367 L297.6367 241.6367 L297.6367 242.832 Q298.5508 241.4961 299.875 241.4961 Q300.7012 241.4961 301.1934 242.0205 Q301.6855 242.5449 301.6855 243.4297 L301.6855 248 L300.5312 248 L300.5312 243.8047 Q300.5312 243.0957 300.3232 242.7939 Q300.1152 242.4922 299.6348 242.4922 Q298.5742 242.4922 297.6367 243.8809 L297.6367 248 Z"
                  clip-path="url(#clipPath8)" stroke="none"/>
            <rect x="174" y="118" clip-path="url(#clipPath9)"
                  fill="rgb(255,255,181)" width="119" height="54" stroke="none"/>
            <rect fill="none" x="174" width="119" height="54" y="118"
                  clip-path="url(#clipPath9)"/>
            <rect x="276" y="124" clip-path="url(#clipPath9)" fill="none"
                  width="13" height="10" stroke="black"/>
            <line clip-path="url(#clipPath9)" fill="none" x1="276" x2="289"
                  y1="127" y2="127" stroke="black"/>
            <path fill="black"
                  d="M196.1191 134 L196.1191 125.3281 L197.3496 125.3281 L197.3496 133.0801 L201.252 133.0801 L201.252 134 ZM202.5527 134 L202.5527 127.6367 L203.707 127.6367 L203.707 134 ZM202.5527 126.4824 L202.5527 125.3281 L203.707 125.3281 L203.707 126.4824 ZM210.6855 133.7949 Q209.5254 134.1465 208.6992 134.1465 Q207.293 134.1465 206.4053 133.2119 Q205.5176 132.2773 205.5176 130.7891 Q205.5176 129.3418 206.2998 128.416 Q207.082 127.4902 208.3008 127.4902 Q209.4551 127.4902 210.085 128.3105 Q210.7148 129.1309 210.7148 130.6426 L210.709 131 L206.6953 131 Q206.9473 133.2676 208.916 133.2676 Q209.6367 133.2676 210.6855 132.8809 ZM206.748 130.1328 L209.5547 130.1328 Q209.5547 128.3574 208.2305 128.3574 Q206.9004 128.3574 206.748 130.1328 ZM212.707 134 L212.707 127.6367 L213.8613 127.6367 L213.8613 128.832 Q214.5469 127.4961 215.8535 127.4961 Q216.0293 127.4961 216.2227 127.5254 L216.2227 128.6035 Q215.9238 128.5039 215.6953 128.5039 Q214.5996 128.5039 213.8613 129.8047 L213.8613 134 ZM218.9941 128.5039 L218.9941 134 L217.834 134 L217.834 128.5039 L216.9316 128.5039 L216.9316 127.6367 L217.834 127.6367 L217.834 126.875 Q217.834 124.6016 219.9082 124.6016 Q220.4883 124.6016 221.2266 124.7949 L221.2266 125.709 Q220.4473 125.4688 219.9785 125.4688 Q219.4102 125.4688 219.2021 125.7412 Q218.9941 126.0137 218.9941 126.752 L218.9941 127.6367 L220.582 127.6367 L220.582 128.5039 ZM226.6934 133.7949 Q225.5332 134.1465 224.707 134.1465 Q223.3008 134.1465 222.4131 133.2119 Q221.5254 132.2773 221.5254 130.7891 Q221.5254 129.3418 222.3076 128.416 Q223.0898 127.4902 224.3086 127.4902 Q225.4629 127.4902 226.0928 128.3105 Q226.7227 129.1309 226.7227 130.6426 L226.7168 131 L222.7031 131 Q222.9551 133.2676 224.9238 133.2676 Q225.6445 133.2676 226.6934 132.8809 ZM222.7559 130.1328 L225.5625 130.1328 Q225.5625 128.3574 224.2383 128.3574 Q222.9082 128.3574 222.7559 130.1328 ZM228.7148 134 L228.7148 127.6367 L229.8691 127.6367 L229.8691 128.832 Q230.5547 127.4961 231.8613 127.4961 Q232.0371 127.4961 232.2305 127.5254 L232.2305 128.6035 Q231.9316 128.5039 231.7031 128.5039 Q230.6074 128.5039 229.8691 129.8047 L229.8691 134 ZM236.9062 133.1914 Q235.8691 134.1465 234.9082 134.1465 Q234.1172 134.1465 233.5957 133.6514 Q233.0742 133.1562 233.0742 132.4004 Q233.0742 131.3574 233.9502 130.7979 Q234.8262 130.2383 236.4609 130.2383 L236.7363 130.2383 L236.7363 129.4707 Q236.7363 128.3633 235.5996 128.3633 Q234.6855 128.3633 233.625 128.9258 L233.625 127.9707 Q234.791 127.4961 235.8105 127.4961 Q236.877 127.4961 237.3838 127.9766 Q237.8906 128.457 237.8906 129.4707 L237.8906 132.3535 Q237.8906 133.3438 238.5 133.3438 Q238.5762 133.3438 238.7227 133.3203 L238.8047 133.959 Q238.4121 134.1465 237.9375 134.1465 Q237.1289 134.1465 236.9062 133.1914 ZM236.7363 132.5645 L236.7363 130.918 L236.3496 130.9062 Q235.4004 130.9062 234.8145 131.2666 Q234.2285 131.627 234.2285 132.2129 Q234.2285 132.6289 234.5215 132.916 Q234.8145 133.2031 235.2363 133.2031 Q235.957 133.2031 236.7363 132.5645 ZM240.252 134 L240.252 127.6367 L241.4062 127.6367 L241.4062 128.832 Q242.3203 127.4961 243.6445 127.4961 Q244.4707 127.4961 244.9629 128.0205 Q245.4551 128.5449 245.4551 129.4297 L245.4551 134 L244.3008 134 L244.3008 129.8047 Q244.3008 129.0957 244.0928 128.7939 Q243.8848 128.4922 243.4043 128.4922 Q242.3438 128.4922 241.4062 129.8809 L241.4062 134 ZM249.6094 134.1465 Q248.7305 134.1465 248.2383 133.6426 Q247.7461 133.1387 247.7461 132.2422 L247.7461 128.5039 L246.9492 128.5039 L246.9492 127.6367 L247.7461 127.6367 L247.7461 126.4824 L248.9004 126.3711 L248.9004 127.6367 L250.5645 127.6367 L250.5645 128.5039 L248.9004 128.5039 L248.9004 132.0312 Q248.9004 133.2793 249.9785 133.2793 Q250.207 133.2793 250.5352 133.2031 L250.5352 134 Q250.002 134.1465 249.6094 134.1465 ZM256.8516 133.7949 Q255.6914 134.1465 254.8652 134.1465 Q253.459 134.1465 252.5713 133.2119 Q251.6836 132.2773 251.6836 130.7891 Q251.6836 129.3418 252.4658 128.416 Q253.248 127.4902 254.4668 127.4902 Q255.6211 127.4902 256.251 128.3105 Q256.8809 129.1309 256.8809 130.6426 L256.875 131 L252.8613 131 Q253.1133 133.2676 255.082 133.2676 Q255.8027 133.2676 256.8516 132.8809 ZM252.9141 130.1328 L255.7207 130.1328 Q255.7207 128.3574 254.3965 128.3574 Q253.0664 128.3574 252.9141 130.1328 ZM258.873 134 L258.873 127.6367 L260.0273 127.6367 L260.0273 128.832 Q260.9414 127.4961 262.2656 127.4961 Q263.0918 127.4961 263.584 128.0205 Q264.0762 128.5449 264.0762 129.4297 L264.0762 134 L262.9219 134 L262.9219 129.8047 Q262.9219 129.0957 262.7139 128.7939 Q262.5059 128.4922 262.0254 128.4922 Q260.9648 128.4922 260.0273 129.8809 L260.0273 134 ZM266.3203 134 L266.3203 124.748 L267.4746 124.748 L267.4746 130.7246 L270.1699 127.6367 L271.4121 127.6367 L268.8398 130.6074 L271.9453 134 L270.4688 134 L267.4746 130.7363 L267.4746 134 Z"
                  clip-path="url(#clipPath10)" stroke="none"/>
            <path fill="black"
                  d="M223.6445 149.1465 Q222.2793 149.1465 221.4648 148.2412 Q220.6504 147.3359 220.6504 145.8184 Q220.6504 144.2832 221.4678 143.3896 Q222.2852 142.4961 223.6855 142.4961 Q225.0859 142.4961 225.9033 143.3896 Q226.7207 144.2832 226.7207 145.8066 Q226.7207 147.3652 225.9004 148.2559 Q225.0801 149.1465 223.6445 149.1465 ZM223.6621 148.2793 Q225.4961 148.2793 225.4961 145.8066 Q225.4961 143.3633 223.6855 143.3633 Q221.8809 143.3633 221.8809 145.8184 Q221.8809 148.2793 223.6621 148.2793 ZM228.5254 149 L228.5254 142.6367 L229.6797 142.6367 L229.6797 143.832 Q230.5938 142.4961 231.918 142.4961 Q232.7441 142.4961 233.2363 143.0205 Q233.7285 143.5449 233.7285 144.4297 L233.7285 149 L232.5742 149 L232.5742 144.8047 Q232.5742 144.0957 232.3662 143.7939 Q232.1582 143.4922 231.6777 143.4922 Q230.6172 143.4922 229.6797 144.8809 L229.6797 149 ZM237.8828 149.1465 Q237.0039 149.1465 236.5117 148.6426 Q236.0195 148.1387 236.0195 147.2422 L236.0195 143.5039 L235.2227 143.5039 L235.2227 142.6367 L236.0195 142.6367 L236.0195 141.4824 L237.1738 141.3711 L237.1738 142.6367 L238.8379 142.6367 L238.8379 143.5039 L237.1738 143.5039 L237.1738 147.0312 Q237.1738 148.2793 238.252 148.2793 Q238.4805 148.2793 238.8086 148.2031 L238.8086 149 Q238.2754 149.1465 237.8828 149.1465 ZM242.9512 149.1465 Q241.5859 149.1465 240.7715 148.2412 Q239.957 147.3359 239.957 145.8184 Q239.957 144.2832 240.7744 143.3896 Q241.5918 142.4961 242.9922 142.4961 Q244.3926 142.4961 245.21 143.3896 Q246.0273 144.2832 246.0273 145.8066 Q246.0273 147.3652 245.207 148.2559 Q244.3867 149.1465 242.9512 149.1465 ZM242.9688 148.2793 Q244.8027 148.2793 244.8027 145.8066 Q244.8027 143.3633 242.9922 143.3633 Q241.1875 143.3633 241.1875 145.8184 Q241.1875 148.2793 242.9688 148.2793 Z"
                  clip-path="url(#clipPath10)" stroke="none"/>
            <rect x="341" y="118" clip-path="url(#clipPath11)"
                  fill="rgb(255,255,181)" width="119" height="54" stroke="none"/>
            <rect fill="none" x="341" width="119" height="54" y="118"
                  clip-path="url(#clipPath11)"/>
            <rect x="443" y="124" clip-path="url(#clipPath11)" fill="none"
                  width="13" height="10" stroke="black"/>
            <line clip-path="url(#clipPath11)" fill="none" x1="443" x2="456"
                  y1="127" y2="127" stroke="black"/>
            <path fill="black"
                  d="M362.0488 125.3281 L363.2793 125.3281 L363.2793 130.8008 Q363.2793 132.1074 363.7627 132.7021 Q364.2461 133.2969 365.3008 133.2969 Q366.332 133.2969 366.7627 132.7373 Q367.1934 132.1777 367.1934 130.8418 L367.1934 125.3281 L368.2715 125.3281 L368.2715 130.8242 Q368.2715 132.5996 367.542 133.4082 Q366.8125 134.2168 365.2188 134.2168 Q363.5957 134.2168 362.8223 133.3789 Q362.0488 132.541 362.0488 130.7891 ZM370.4688 134 L370.4688 127.6367 L371.623 127.6367 L371.623 128.832 Q372.5371 127.4961 373.8613 127.4961 Q374.6875 127.4961 375.1797 128.0205 Q375.6719 128.5449 375.6719 129.4297 L375.6719 134 L374.5176 134 L374.5176 129.8047 Q374.5176 129.0957 374.3096 128.7939 Q374.1016 128.4922 373.6211 128.4922 Q372.5605 128.4922 371.623 129.8809 L371.623 134 ZM379.8262 134.1465 Q378.9473 134.1465 378.4551 133.6426 Q377.9629 133.1387 377.9629 132.2422 L377.9629 128.5039 L377.166 128.5039 L377.166 127.6367 L377.9629 127.6367 L377.9629 126.4824 L379.1172 126.3711 L379.1172 127.6367 L380.7812 127.6367 L380.7812 128.5039 L379.1172 128.5039 L379.1172 132.0312 Q379.1172 133.2793 380.1953 133.2793 Q380.4238 133.2793 380.752 133.2031 L380.752 134 Q380.2188 134.1465 379.8262 134.1465 ZM387.0684 133.7949 Q385.9082 134.1465 385.082 134.1465 Q383.6758 134.1465 382.7881 133.2119 Q381.9004 132.2773 381.9004 130.7891 Q381.9004 129.3418 382.6826 128.416 Q383.4648 127.4902 384.6836 127.4902 Q385.8379 127.4902 386.4678 128.3105 Q387.0977 129.1309 387.0977 130.6426 L387.0918 131 L383.0781 131 Q383.3301 133.2676 385.2988 133.2676 Q386.0195 133.2676 387.0684 132.8809 ZM383.1309 130.1328 L385.9375 130.1328 Q385.9375 128.3574 384.6133 128.3574 Q383.2832 128.3574 383.1309 130.1328 ZM389.0898 134 L389.0898 127.6367 L390.2441 127.6367 L390.2441 128.832 Q390.9297 127.4961 392.2363 127.4961 Q392.4121 127.4961 392.6055 127.5254 L392.6055 128.6035 Q392.3066 128.5039 392.0781 128.5039 Q390.9824 128.5039 390.2441 129.8047 L390.2441 134 ZM394 134 L394 127.6367 L395.1543 127.6367 L395.1543 128.832 Q396.0684 127.4961 397.3926 127.4961 Q398.2188 127.4961 398.7109 128.0205 Q399.2031 128.5449 399.2031 129.4297 L399.2031 134 L398.0488 134 L398.0488 129.8047 Q398.0488 129.0957 397.8408 128.7939 Q397.6328 128.4922 397.1523 128.4922 Q396.0918 128.4922 395.1543 129.8809 L395.1543 134 ZM406.1113 133.7949 Q404.9512 134.1465 404.125 134.1465 Q402.7188 134.1465 401.8311 133.2119 Q400.9434 132.2773 400.9434 130.7891 Q400.9434 129.3418 401.7256 128.416 Q402.5078 127.4902 403.7266 127.4902 Q404.8809 127.4902 405.5107 128.3105 Q406.1406 129.1309 406.1406 130.6426 L406.1348 131 L402.1211 131 Q402.373 133.2676 404.3418 133.2676 Q405.0625 133.2676 406.1113 132.8809 ZM402.1738 130.1328 L404.9805 130.1328 Q404.9805 128.3574 403.6562 128.3574 Q402.3262 128.3574 402.1738 130.1328 ZM408.1328 134 L408.1328 124.748 L409.2871 124.748 L409.2871 128.832 Q410.2012 127.4961 411.5254 127.4961 Q412.3516 127.4961 412.8438 128.0205 Q413.3359 128.5449 413.3359 129.4297 L413.3359 134 L412.1816 134 L412.1816 129.8047 Q412.1816 129.0957 411.9736 128.7939 Q411.7656 128.4922 411.2852 128.4922 Q410.2246 128.4922 409.2871 129.8809 L409.2871 134 ZM415.5801 134 L415.5801 127.6367 L416.7344 127.6367 L416.7344 128.832 Q417.5781 127.4961 418.9023 127.4961 Q420.1797 127.4961 420.6426 128.832 Q421.4629 127.4902 422.7754 127.4902 Q423.6191 127.4902 424.082 127.9854 Q424.5449 128.4805 424.5449 129.3711 L424.5449 134 L423.3848 134 L423.3848 129.5527 Q423.3848 128.4629 422.5234 128.4629 Q421.627 128.4629 420.6426 129.7344 L420.6426 134 L419.4824 134 L419.4824 129.5527 Q419.4824 128.457 418.6035 128.457 Q417.7305 128.457 416.7344 129.7344 L416.7344 134 ZM431.4473 133.7949 Q430.2871 134.1465 429.4609 134.1465 Q428.0547 134.1465 427.167 133.2119 Q426.2793 132.2773 426.2793 130.7891 Q426.2793 129.3418 427.0615 128.416 Q427.8438 127.4902 429.0625 127.4902 Q430.2168 127.4902 430.8467 128.3105 Q431.4766 129.1309 431.4766 130.6426 L431.4707 131 L427.457 131 Q427.709 133.2676 429.6777 133.2676 Q430.3984 133.2676 431.4473 132.8809 ZM427.5098 130.1328 L430.3164 130.1328 Q430.3164 128.3574 428.9922 128.3574 Q427.6621 128.3574 427.5098 130.1328 ZM433.4688 134 L433.4688 127.6367 L434.623 127.6367 L434.623 128.832 Q435.5371 127.4961 436.8613 127.4961 Q437.6875 127.4961 438.1797 128.0205 Q438.6719 128.5449 438.6719 129.4297 L438.6719 134 L437.5176 134 L437.5176 129.8047 Q437.5176 129.0957 437.3096 128.7939 Q437.1016 128.4922 436.6211 128.4922 Q435.5605 128.4922 434.623 129.8809 L434.623 134 Z"
                  clip-path="url(#clipPath12)" stroke="none"/>
            <path fill="rgb(250,97,40)"
                  d="M351 10 L475 10 L485 20 L485 70 L475 80 L351 80 L341 70 L341 20 ZM351 10"
                  clip-path="url(#clipPath13)" fill-rule="evenodd" stroke="none"/>
            <polygon fill="none" clip-path="url(#clipPath13)"
                     points=" 351 10 475 10 485 20 485 70 475 80 351 80 341 70 341 20"
                     stroke="rgb(175,67,28)"/>
            <path fill="none"
                  d="M469 19 C466.7908 19 465 20.567 465 22.5 C465 24.433 466.7908 26 469 26 L476 26 M468.5 19 L476 19"
                  clip-path="url(#clipPath13)" fill-rule="evenodd"
                  stroke="black"/>
            <circle fill="none" r="3.5" clip-path="url(#clipPath13)" cx="476.5"
                    cy="22.5" stroke="black"/>
            <path fill="black"
                  d="M396.1191 26 L396.1191 17.3281 L397.2734 17.3281 L397.2734 21.5938 L400.7832 17.3281 L402.0195 17.3281 L398.6211 21.4648 L402.623 26 L401.0645 26 L397.2734 21.6055 L397.2734 26 ZM407.9668 26 L407.9668 24.8047 Q407.0469 26.1465 405.7344 26.1465 Q404.9023 26.1465 404.4102 25.6221 Q403.918 25.0977 403.918 24.207 L403.918 19.6367 L405.0723 19.6367 L405.0723 23.832 Q405.0723 24.5469 405.2803 24.8486 Q405.4883 25.1504 405.9746 25.1504 Q407.0293 25.1504 407.9668 23.7617 L407.9668 19.6367 L409.1211 19.6367 L409.1211 26 ZM411.4355 26 L411.4355 19.6367 L412.5898 19.6367 L412.5898 20.832 Q413.5039 19.4961 414.8281 19.4961 Q415.6543 19.4961 416.1465 20.0205 Q416.6387 20.5449 416.6387 21.4297 L416.6387 26 L415.4844 26 L415.4844 21.8047 Q415.4844 21.0957 415.2764 20.7939 Q415.0684 20.4922 414.5879 20.4922 Q413.5273 20.4922 412.5898 21.8809 L412.5898 26 ZM422.9668 26 L422.9668 24.8047 Q422.2637 26.1465 420.8457 26.1465 Q419.6973 26.1465 419.0381 25.3086 Q418.3789 24.4707 418.3789 23.0176 Q418.3789 21.4297 419.126 20.4629 Q419.873 19.4961 421.0918 19.4961 Q422.2227 19.4961 422.9668 20.3633 L422.9668 16.748 L424.127 16.748 L424.127 26 ZM422.9668 21.1543 Q422.0703 20.3633 421.2676 20.3633 Q419.6094 20.3633 419.6094 22.9004 Q419.6094 25.1328 421.0859 25.1328 Q422.0469 25.1328 422.9668 24.084 ZM431.0996 25.7949 Q429.9395 26.1465 429.1133 26.1465 Q427.707 26.1465 426.8193 25.2119 Q425.9316 24.2773 425.9316 22.7891 Q425.9316 21.3418 426.7139 20.416 Q427.4961 19.4902 428.7148 19.4902 Q429.8691 19.4902 430.499 20.3105 Q431.1289 21.1309 431.1289 22.6426 L431.123 23 L427.1094 23 Q427.3613 25.2676 429.3301 25.2676 Q430.0508 25.2676 431.0996 24.8809 ZM427.1621 22.1328 L429.9688 22.1328 Q429.9688 20.3574 428.6445 20.3574 Q427.3145 20.3574 427.1621 22.1328 Z"
                  clip-path="url(#clipPath14)" stroke="none"/>
        </g>
    </g>
</svg>
